<?xml version="1.0" encoding="utf-8" standalone="no"?>
<!DOCTYPE svg PUBLIC "-//W3C//DTD SVG 1.1//EN"
  "http://www.w3.org/Graphics/SVG/1.1/DTD/svg11.dtd">
<svg xmlns:xlink="http://www.w3.org/1999/xlink" width="648pt" height="360pt" viewBox="0 0 648 360" xmlns="http://www.w3.org/2000/svg" version="1.1">
 <metadata>
  <rdf:RDF xmlns:dc="http://purl.org/dc/elements/1.1/" xmlns:cc="http://creativecommons.org/ns#" xmlns:rdf="http://www.w3.org/1999/02/22-rdf-syntax-ns#">
   <cc:Work>
    <dc:type rdf:resource="http://purl.org/dc/dcmitype/StillImage"/>
    <dc:date>2023-11-09T13:40:50.822839</dc:date>
    <dc:format>image/svg+xml</dc:format>
    <dc:creator>
     <cc:Agent>
      <dc:title>Matplotlib v3.7.1, https://matplotlib.org/</dc:title>
     </cc:Agent>
    </dc:creator>
   </cc:Work>
  </rdf:RDF>
 </metadata>
 <defs>
  <style type="text/css">*{stroke-linejoin: round; stroke-linecap: butt}</style>
 </defs>
 <g id="figure_1">
  <g id="patch_1">
   <path d="M 0 360 
L 648 360 
L 648 0 
L 0 0 
z
" style="fill: #ffffff"/>
  </g>
  <g id="axes_1">
   <g id="patch_2">
    <path d="M 81 320.4 
L 583.2 320.4 
L 583.2 43.2 
L 81 43.2 
z
" style="fill: #ffffff"/>
   </g>
   <g id="matplotlib.axis_1">
    <g id="xtick_1">
     <g id="line2d_1">
      <path d="M 160.294737 320.4 
L 160.294737 43.2 
" clip-path="url(#p274b559e55)" style="fill: none; stroke: #b0b0b0; stroke-width: 0.8; stroke-linecap: square"/>
     </g>
     <g id="line2d_2">
      <defs>
       <path id="m1eb5956501" d="M 0 0 
L 0 3.5 
" style="stroke: #000000; stroke-width: 0.8"/>
      </defs>
      <g>
       <use xlink:href="#m1eb5956501" x="160.294737" y="320.4" style="stroke: #000000; stroke-width: 0.8"/>
      </g>
     </g>
     <g id="text_1">
      <!-- $\mathdefault{20}$ -->
      <g transform="translate(154.441747 335.70218) scale(0.12 -0.12)">
       <defs>
        <path id="CMR17-32" d="M 2669 990 
L 2554 990 
C 2490 537 2438 460 2413 422 
C 2381 371 1920 371 1830 371 
L 602 371 
C 832 620 1280 1073 1824 1596 
C 2214 1966 2669 2400 2669 3033 
C 2669 3788 2067 4224 1395 4224 
C 691 4224 262 3603 262 3027 
C 262 2777 448 2745 525 2745 
C 589 2745 781 2783 781 3007 
C 781 3206 614 3264 525 3264 
C 486 3264 448 3257 422 3244 
C 544 3788 915 4057 1306 4057 
C 1862 4057 2227 3616 2227 3033 
C 2227 2477 1901 1998 1536 1583 
L 262 147 
L 262 0 
L 2515 0 
L 2669 990 
z
" transform="scale(0.015625)"/>
        <path id="CMR17-30" d="M 2688 2038 
C 2688 2430 2682 3099 2413 3613 
C 2176 4063 1798 4224 1466 4224 
C 1158 4224 768 4082 525 3620 
C 269 3137 243 2539 243 2038 
C 243 1671 250 1112 448 623 
C 723 -39 1216 -128 1466 -128 
C 1760 -128 2208 -7 2470 604 
C 2662 1048 2688 1568 2688 2038 
z
M 1466 -26 
C 1056 -26 813 328 723 816 
C 653 1196 653 1749 653 2109 
C 653 2604 653 3015 736 3407 
C 858 3954 1216 4121 1466 4121 
C 1728 4121 2067 3947 2189 3420 
C 2272 3054 2278 2623 2278 2109 
C 2278 1691 2278 1176 2202 797 
C 2067 96 1690 -26 1466 -26 
z
" transform="scale(0.015625)"/>
       </defs>
       <use xlink:href="#CMR17-32" transform="scale(0.996264)"/>
       <use xlink:href="#CMR17-30" transform="translate(45.690477 0) scale(0.996264)"/>
      </g>
     </g>
    </g>
    <g id="xtick_2">
     <g id="line2d_3">
      <path d="M 266.021053 320.4 
L 266.021053 43.2 
" clip-path="url(#p274b559e55)" style="fill: none; stroke: #b0b0b0; stroke-width: 0.8; stroke-linecap: square"/>
     </g>
     <g id="line2d_4">
      <g>
       <use xlink:href="#m1eb5956501" x="266.021053" y="320.4" style="stroke: #000000; stroke-width: 0.8"/>
      </g>
     </g>
     <g id="text_2">
      <!-- $\mathdefault{40}$ -->
      <g transform="translate(260.168062 335.70218) scale(0.12 -0.12)">
       <defs>
        <path id="CMR17-34" d="M 2150 4147 
C 2150 4281 2144 4288 2029 4288 
L 128 1254 
L 128 1088 
L 1779 1088 
L 1779 460 
C 1779 230 1766 166 1318 166 
L 1197 166 
L 1197 0 
C 1402 12 1747 12 1965 12 
C 2182 12 2528 12 2733 0 
L 2733 166 
L 2611 166 
C 2163 166 2150 230 2150 460 
L 2150 1088 
L 2803 1088 
L 2803 1254 
L 2150 1254 
L 2150 4147 
z
M 1798 3723 
L 1798 1254 
L 256 1254 
L 1798 3723 
z
" transform="scale(0.015625)"/>
       </defs>
       <use xlink:href="#CMR17-34" transform="scale(0.996264)"/>
       <use xlink:href="#CMR17-30" transform="translate(45.690477 0) scale(0.996264)"/>
      </g>
     </g>
    </g>
    <g id="xtick_3">
     <g id="line2d_5">
      <path d="M 371.747368 320.4 
L 371.747368 43.2 
" clip-path="url(#p274b559e55)" style="fill: none; stroke: #b0b0b0; stroke-width: 0.8; stroke-linecap: square"/>
     </g>
     <g id="line2d_6">
      <g>
       <use xlink:href="#m1eb5956501" x="371.747368" y="320.4" style="stroke: #000000; stroke-width: 0.8"/>
      </g>
     </g>
     <g id="text_3">
      <!-- $\mathdefault{60}$ -->
      <g transform="translate(365.894378 335.70218) scale(0.12 -0.12)">
       <defs>
        <path id="CMR17-36" d="M 678 2198 
C 678 3712 1395 4076 1811 4076 
C 1946 4076 2272 4049 2400 3782 
C 2298 3782 2106 3782 2106 3558 
C 2106 3385 2246 3328 2336 3328 
C 2394 3328 2566 3353 2566 3571 
C 2566 3987 2246 4224 1805 4224 
C 1043 4224 243 3411 243 2011 
C 243 257 966 -128 1478 -128 
C 2099 -128 2688 431 2688 1295 
C 2688 2101 2170 2688 1517 2688 
C 1126 2688 838 2430 678 1979 
L 678 2198 
z
M 1478 25 
C 691 25 691 1212 691 1450 
C 691 1914 909 2585 1504 2585 
C 1613 2585 1926 2585 2138 2140 
C 2253 1889 2253 1624 2253 1302 
C 2253 954 2253 696 2118 438 
C 1978 173 1773 25 1478 25 
z
" transform="scale(0.015625)"/>
       </defs>
       <use xlink:href="#CMR17-36" transform="scale(0.996264)"/>
       <use xlink:href="#CMR17-30" transform="translate(45.690477 0) scale(0.996264)"/>
      </g>
     </g>
    </g>
    <g id="xtick_4">
     <g id="line2d_7">
      <path d="M 477.473684 320.4 
L 477.473684 43.2 
" clip-path="url(#p274b559e55)" style="fill: none; stroke: #b0b0b0; stroke-width: 0.8; stroke-linecap: square"/>
     </g>
     <g id="line2d_8">
      <g>
       <use xlink:href="#m1eb5956501" x="477.473684" y="320.4" style="stroke: #000000; stroke-width: 0.8"/>
      </g>
     </g>
     <g id="text_4">
      <!-- $\mathdefault{80}$ -->
      <g transform="translate(471.620694 335.70218) scale(0.12 -0.12)">
       <defs>
        <path id="CMR17-38" d="M 1741 2289 
C 2144 2494 2554 2803 2554 3298 
C 2554 3884 1990 4224 1472 4224 
C 890 4224 378 3800 378 3215 
C 378 3054 416 2777 666 2533 
C 730 2469 998 2276 1171 2154 
C 883 2006 211 1652 211 945 
C 211 282 838 -128 1459 -128 
C 2144 -128 2720 366 2720 1022 
C 2720 1607 2330 1877 2074 2051 
L 1741 2289 
z
M 902 2855 
C 851 2887 595 3086 595 3388 
C 595 3781 998 4076 1459 4076 
C 1965 4076 2336 3716 2336 3298 
C 2336 2700 1670 2359 1638 2359 
C 1632 2359 1626 2359 1574 2398 
L 902 2855 
z
M 2080 1536 
C 2176 1466 2483 1253 2483 861 
C 2483 385 2010 25 1472 25 
C 890 25 448 443 448 951 
C 448 1459 838 1884 1280 2083 
L 2080 1536 
z
" transform="scale(0.015625)"/>
       </defs>
       <use xlink:href="#CMR17-38" transform="scale(0.996264)"/>
       <use xlink:href="#CMR17-30" transform="translate(45.690477 0) scale(0.996264)"/>
      </g>
     </g>
    </g>
    <g id="xtick_5">
     <g id="line2d_9">
      <path d="M 583.2 320.4 
L 583.2 43.2 
" clip-path="url(#p274b559e55)" style="fill: none; stroke: #b0b0b0; stroke-width: 0.8; stroke-linecap: square"/>
     </g>
     <g id="line2d_10">
      <g>
       <use xlink:href="#m1eb5956501" x="583.2" y="320.4" style="stroke: #000000; stroke-width: 0.8"/>
      </g>
     </g>
     <g id="text_5">
      <!-- $\mathdefault{100}$ -->
      <g transform="translate(574.420515 335.70218) scale(0.12 -0.12)">
       <defs>
        <path id="CMR17-31" d="M 1702 4083 
C 1702 4217 1696 4224 1606 4224 
C 1357 3927 979 3833 621 3820 
C 602 3820 570 3820 563 3808 
C 557 3795 557 3782 557 3648 
C 755 3648 1088 3686 1344 3839 
L 1344 467 
C 1344 243 1331 166 781 166 
L 589 166 
L 589 0 
C 896 6 1216 12 1523 12 
C 1830 12 2150 6 2458 0 
L 2458 166 
L 2266 166 
C 1715 166 1702 236 1702 467 
L 1702 4083 
z
" transform="scale(0.015625)"/>
       </defs>
       <use xlink:href="#CMR17-31" transform="scale(0.996264)"/>
       <use xlink:href="#CMR17-30" transform="translate(45.690477 0) scale(0.996264)"/>
       <use xlink:href="#CMR17-30" transform="translate(91.380954 0) scale(0.996264)"/>
      </g>
     </g>
    </g>
    <g id="text_6">
     <!-- r (m) -->
     <g transform="translate(318.443023 350.993152) scale(0.12 -0.12)">
      <defs>
       <path id="CMR17-72" d="M 960 1517 
C 960 2134 1222 2713 1702 2713 
C 1747 2713 1792 2707 1837 2687 
C 1837 2687 1696 2642 1696 2475 
C 1696 2321 1818 2257 1914 2257 
C 1990 2257 2131 2302 2131 2482 
C 2131 2687 1926 2816 1709 2816 
C 1222 2816 1011 2340 947 2115 
L 941 2115 
L 941 2816 
L 198 2745 
L 198 2578 
C 576 2578 634 2540 634 2231 
L 634 443 
C 634 198 608 166 198 166 
L 198 0 
C 352 12 646 12 813 12 
C 998 12 1325 12 1498 0 
L 1498 166 
C 1037 166 960 166 960 455 
L 960 1517 
z
" transform="scale(0.015625)"/>
       <path id="CMR17-28" d="M 1958 -1562 
C 1958 -1556 1958 -1543 1939 -1524 
C 1645 -1223 858 -403 858 1596 
C 858 3595 1632 4408 1946 4729 
C 1946 4735 1958 4748 1958 4767 
C 1958 4787 1939 4800 1914 4800 
C 1843 4800 1299 4325 986 3620 
C 666 2909 576 2218 576 1603 
C 576 1141 621 360 1005 -467 
C 1312 -1133 1837 -1600 1914 -1600 
C 1946 -1600 1958 -1588 1958 -1562 
z
" transform="scale(0.015625)"/>
       <path id="CMR17-6d" d="M 4326 1954 
C 4326 2276 4269 2816 3507 2816 
C 3072 2816 2771 2520 2656 2173 
L 2650 2173 
C 2573 2700 2195 2816 1837 2816 
C 1331 2816 1069 2424 973 2166 
L 966 2166 
L 966 2816 
L 211 2745 
L 211 2578 
C 589 2578 646 2540 646 2231 
L 646 443 
C 646 198 621 166 211 166 
L 211 0 
C 365 12 646 12 813 12 
C 979 12 1267 12 1421 0 
L 1421 166 
C 1011 166 986 192 986 443 
L 986 1678 
C 986 2269 1344 2713 1792 2713 
C 2266 2713 2317 2289 2317 1980 
L 2317 443 
C 2317 198 2291 166 1882 166 
L 1882 0 
C 2035 12 2317 12 2483 12 
C 2650 12 2938 12 3091 0 
L 3091 166 
C 2682 166 2656 192 2656 443 
L 2656 1678 
C 2656 2269 3014 2713 3462 2713 
C 3936 2713 3987 2289 3987 1980 
L 3987 443 
C 3987 198 3962 166 3552 166 
L 3552 0 
C 3706 12 3987 12 4154 12 
C 4320 12 4608 12 4762 0 
L 4762 166 
C 4352 166 4326 192 4326 443 
L 4326 1954 
z
" transform="scale(0.015625)"/>
       <path id="CMR17-29" d="M 1683 1596 
C 1683 2057 1638 2839 1254 3665 
C 947 4332 422 4800 346 4800 
C 326 4800 301 4793 301 4761 
C 301 4748 307 4742 314 4729 
C 621 4408 1402 3595 1402 1603 
C 1402 -396 627 -1210 314 -1530 
C 307 -1543 301 -1549 301 -1562 
C 301 -1594 326 -1600 346 -1600 
C 416 -1600 960 -1127 1274 -422 
C 1594 289 1683 981 1683 1596 
z
" transform="scale(0.015625)"/>
      </defs>
      <use xlink:href="#CMR17-72" transform="scale(0.996264)"/>
      <use xlink:href="#CMR17-28" transform="translate(65.356734 0) scale(0.996264)"/>
      <use xlink:href="#CMR17-6d" transform="translate(100.637502 0) scale(0.996264)"/>
      <use xlink:href="#CMR17-29" transform="translate(177.557092 0) scale(0.996264)"/>
     </g>
    </g>
   </g>
   <g id="matplotlib.axis_2">
    <g id="ytick_1">
     <g id="line2d_11">
      <path d="M 81 307.8 
L 583.2 307.8 
" clip-path="url(#p274b559e55)" style="fill: none; stroke: #b0b0b0; stroke-width: 0.8; stroke-linecap: square"/>
     </g>
     <g id="line2d_12">
      <defs>
       <path id="m7f882fee76" d="M 0 0 
L -3.5 0 
" style="stroke: #000000; stroke-width: 0.8"/>
      </defs>
      <g>
       <use xlink:href="#m7f882fee76" x="81" y="307.8" style="stroke: #000000; stroke-width: 0.8"/>
      </g>
     </g>
     <g id="text_7">
      <!-- $\mathdefault{-16}$ -->
      <g transform="translate(52.99553 311.95109) scale(0.12 -0.12)">
       <defs>
        <path id="CMSY10-0" d="M 4218 1472 
C 4326 1472 4442 1472 4442 1600 
C 4442 1728 4326 1728 4218 1728 
L 755 1728 
C 646 1728 531 1728 531 1600 
C 531 1472 646 1472 755 1472 
L 4218 1472 
z
" transform="scale(0.015625)"/>
       </defs>
       <use xlink:href="#CMSY10-0" transform="scale(0.996264)"/>
       <use xlink:href="#CMR17-31" transform="translate(77.487468 0) scale(0.996264)"/>
       <use xlink:href="#CMR17-36" transform="translate(123.177945 0) scale(0.996264)"/>
      </g>
     </g>
    </g>
    <g id="ytick_2">
     <g id="line2d_13">
      <path d="M 81 276.3 
L 583.2 276.3 
" clip-path="url(#p274b559e55)" style="fill: none; stroke: #b0b0b0; stroke-width: 0.8; stroke-linecap: square"/>
     </g>
     <g id="line2d_14">
      <g>
       <use xlink:href="#m7f882fee76" x="81" y="276.3" style="stroke: #000000; stroke-width: 0.8"/>
      </g>
     </g>
     <g id="text_8">
      <!-- $\mathdefault{-14}$ -->
      <g transform="translate(52.99553 280.45109) scale(0.12 -0.12)">
       <use xlink:href="#CMSY10-0" transform="scale(0.996264)"/>
       <use xlink:href="#CMR17-31" transform="translate(77.487468 0) scale(0.996264)"/>
       <use xlink:href="#CMR17-34" transform="translate(123.177945 0) scale(0.996264)"/>
      </g>
     </g>
    </g>
    <g id="ytick_3">
     <g id="line2d_15">
      <path d="M 81 244.8 
L 583.2 244.8 
" clip-path="url(#p274b559e55)" style="fill: none; stroke: #b0b0b0; stroke-width: 0.8; stroke-linecap: square"/>
     </g>
     <g id="line2d_16">
      <g>
       <use xlink:href="#m7f882fee76" x="81" y="244.8" style="stroke: #000000; stroke-width: 0.8"/>
      </g>
     </g>
     <g id="text_9">
      <!-- $\mathdefault{-12}$ -->
      <g transform="translate(52.99553 248.95109) scale(0.12 -0.12)">
       <use xlink:href="#CMSY10-0" transform="scale(0.996264)"/>
       <use xlink:href="#CMR17-31" transform="translate(77.487468 0) scale(0.996264)"/>
       <use xlink:href="#CMR17-32" transform="translate(123.177945 0) scale(0.996264)"/>
      </g>
     </g>
    </g>
    <g id="ytick_4">
     <g id="line2d_17">
      <path d="M 81 213.3 
L 583.2 213.3 
" clip-path="url(#p274b559e55)" style="fill: none; stroke: #b0b0b0; stroke-width: 0.8; stroke-linecap: square"/>
     </g>
     <g id="line2d_18">
      <g>
       <use xlink:href="#m7f882fee76" x="81" y="213.3" style="stroke: #000000; stroke-width: 0.8"/>
      </g>
     </g>
     <g id="text_10">
      <!-- $\mathdefault{-10}$ -->
      <g transform="translate(52.99553 217.45109) scale(0.12 -0.12)">
       <use xlink:href="#CMSY10-0" transform="scale(0.996264)"/>
       <use xlink:href="#CMR17-31" transform="translate(77.487468 0) scale(0.996264)"/>
       <use xlink:href="#CMR17-30" transform="translate(123.177945 0) scale(0.996264)"/>
      </g>
     </g>
    </g>
    <g id="ytick_5">
     <g id="line2d_19">
      <path d="M 81 181.8 
L 583.2 181.8 
" clip-path="url(#p274b559e55)" style="fill: none; stroke: #b0b0b0; stroke-width: 0.8; stroke-linecap: square"/>
     </g>
     <g id="line2d_20">
      <g>
       <use xlink:href="#m7f882fee76" x="81" y="181.8" style="stroke: #000000; stroke-width: 0.8"/>
      </g>
     </g>
     <g id="text_11">
      <!-- $\mathdefault{-8}$ -->
      <g transform="translate(58.84852 185.95109) scale(0.12 -0.12)">
       <use xlink:href="#CMSY10-0" transform="scale(0.996264)"/>
       <use xlink:href="#CMR17-38" transform="translate(77.487468 0) scale(0.996264)"/>
      </g>
     </g>
    </g>
    <g id="ytick_6">
     <g id="line2d_21">
      <path d="M 81 150.3 
L 583.2 150.3 
" clip-path="url(#p274b559e55)" style="fill: none; stroke: #b0b0b0; stroke-width: 0.8; stroke-linecap: square"/>
     </g>
     <g id="line2d_22">
      <g>
       <use xlink:href="#m7f882fee76" x="81" y="150.3" style="stroke: #000000; stroke-width: 0.8"/>
      </g>
     </g>
     <g id="text_12">
      <!-- $\mathdefault{-6}$ -->
      <g transform="translate(58.84852 154.45109) scale(0.12 -0.12)">
       <use xlink:href="#CMSY10-0" transform="scale(0.996264)"/>
       <use xlink:href="#CMR17-36" transform="translate(77.487468 0) scale(0.996264)"/>
      </g>
     </g>
    </g>
    <g id="ytick_7">
     <g id="line2d_23">
      <path d="M 81 118.8 
L 583.2 118.8 
" clip-path="url(#p274b559e55)" style="fill: none; stroke: #b0b0b0; stroke-width: 0.8; stroke-linecap: square"/>
     </g>
     <g id="line2d_24">
      <g>
       <use xlink:href="#m7f882fee76" x="81" y="118.8" style="stroke: #000000; stroke-width: 0.8"/>
      </g>
     </g>
     <g id="text_13">
      <!-- $\mathdefault{-4}$ -->
      <g transform="translate(58.84852 122.95109) scale(0.12 -0.12)">
       <use xlink:href="#CMSY10-0" transform="scale(0.996264)"/>
       <use xlink:href="#CMR17-34" transform="translate(77.487468 0) scale(0.996264)"/>
      </g>
     </g>
    </g>
    <g id="ytick_8">
     <g id="line2d_25">
      <path d="M 81 87.3 
L 583.2 87.3 
" clip-path="url(#p274b559e55)" style="fill: none; stroke: #b0b0b0; stroke-width: 0.8; stroke-linecap: square"/>
     </g>
     <g id="line2d_26">
      <g>
       <use xlink:href="#m7f882fee76" x="81" y="87.3" style="stroke: #000000; stroke-width: 0.8"/>
      </g>
     </g>
     <g id="text_14">
      <!-- $\mathdefault{-2}$ -->
      <g transform="translate(58.84852 91.45109) scale(0.12 -0.12)">
       <use xlink:href="#CMSY10-0" transform="scale(0.996264)"/>
       <use xlink:href="#CMR17-32" transform="translate(77.487468 0) scale(0.996264)"/>
      </g>
     </g>
    </g>
    <g id="ytick_9">
     <g id="line2d_27">
      <path d="M 81 55.8 
L 583.2 55.8 
" clip-path="url(#p274b559e55)" style="fill: none; stroke: #b0b0b0; stroke-width: 0.8; stroke-linecap: square"/>
     </g>
     <g id="line2d_28">
      <g>
       <use xlink:href="#m7f882fee76" x="81" y="55.8" style="stroke: #000000; stroke-width: 0.8"/>
      </g>
     </g>
     <g id="text_15">
      <!-- $\mathdefault{0}$ -->
      <g transform="translate(68.14701 59.95109) scale(0.12 -0.12)">
       <use xlink:href="#CMR17-30" transform="scale(0.996264)"/>
      </g>
     </g>
    </g>
    <g id="text_16">
     <!-- $\sigma_{ij}$ (MPa) -->
     <g transform="translate(45.652521 207.372028) rotate(-90) scale(0.12 -0.12)">
      <defs>
       <path id="CMMI12-1b" d="M 3251 2406 
C 3334 2406 3546 2406 3546 2611 
C 3546 2752 3424 2752 3309 2752 
L 1894 2752 
C 934 2752 243 1685 243 932 
C 243 389 595 -64 1171 -64 
C 1926 -64 2752 746 2752 1704 
C 2752 1953 2694 2195 2541 2406 
L 3251 2406 
z
M 1178 64 
C 851 64 614 312 614 753 
C 614 1136 845 2406 1786 2406 
C 2061 2406 2368 2272 2368 1780 
C 2368 1557 2266 1021 2042 651 
C 1811 274 1466 64 1178 64 
z
" transform="scale(0.015625)"/>
       <path id="CMMI12-69" d="M 1811 913 
C 1811 945 1786 970 1747 970 
C 1690 970 1683 951 1651 842 
C 1485 261 1222 64 1011 64 
C 934 64 845 83 845 274 
C 845 447 922 638 992 830 
L 1440 2017 
C 1459 2068 1504 2183 1504 2305 
C 1504 2573 1312 2816 998 2816 
C 410 2816 173 1890 173 1838 
C 173 1813 198 1781 243 1781 
C 301 1781 307 1807 333 1896 
C 486 2432 730 2687 979 2687 
C 1037 2687 1146 2681 1146 2477 
C 1146 2311 1062 2100 1011 1960 
L 563 772 
C 525 670 486 568 486 453 
C 486 166 685 -64 992 -64 
C 1581 -64 1811 868 1811 913 
z
M 1760 4012 
C 1760 4108 1683 4224 1542 4224 
C 1395 4224 1229 4083 1229 3916 
C 1229 3756 1363 3705 1440 3705 
C 1613 3705 1760 3871 1760 4012 
z
" transform="scale(0.015625)"/>
       <path id="CMMI12-6a" d="M 2240 2027 
C 2266 2129 2266 2218 2266 2243 
C 2266 2611 1990 2816 1702 2816 
C 1056 2816 710 1888 710 1843 
C 710 1811 736 1786 774 1786 
C 826 1786 832 1811 864 1875 
C 1120 2491 1440 2687 1683 2687 
C 1818 2687 1888 2617 1888 2395 
C 1888 2243 1869 2180 1843 2065 
L 1235 -327 
C 1114 -797 813 -1152 461 -1152 
C 435 -1152 301 -1152 179 -1089 
C 333 -1057 454 -937 454 -784 
C 454 -683 378 -581 237 -581 
C 70 -581 -83 -721 -83 -911 
C -83 -1172 198 -1280 461 -1280 
C 902 -1280 1485 -956 1645 -321 
L 2240 2027 
z
M 2502 4012 
C 2502 4172 2368 4224 2291 4224 
C 2118 4224 1971 4057 1971 3916 
C 1971 3820 2048 3705 2189 3705 
C 2336 3705 2502 3846 2502 4012 
z
" transform="scale(0.015625)"/>
       <path id="CMR17-4d" d="M 1338 4249 
C 1299 4345 1293 4352 1158 4352 
L 339 4352 
L 339 4185 
C 781 4185 851 4185 851 3898 
L 851 624 
C 851 465 851 166 339 166 
L 339 0 
C 486 12 755 12 915 12 
C 1075 12 1344 12 1491 0 
L 1491 166 
C 979 166 979 465 979 624 
L 979 4159 
L 986 4159 
L 2490 102 
C 2515 38 2528 0 2579 0 
C 2630 0 2643 38 2669 102 
L 4186 4191 
L 4192 4191 
L 4192 453 
C 4192 166 4122 166 3680 166 
L 3680 0 
C 3853 12 4198 12 4384 12 
C 4570 12 4922 12 5094 0 
L 5094 166 
C 4653 166 4582 166 4582 453 
L 4582 3898 
C 4582 4185 4653 4185 5094 4185 
L 5094 4352 
L 4282 4352 
C 4147 4352 4141 4345 4102 4249 
L 2720 516 
L 1338 4249 
z
" transform="scale(0.015625)"/>
       <path id="CMR17-50" d="M 1267 2048 
L 2291 2048 
C 3117 2048 3718 2583 3718 3187 
C 3718 3791 3130 4352 2291 4352 
L 333 4352 
L 333 4185 
C 774 4185 845 4185 845 3899 
L 845 453 
C 845 166 774 166 333 166 
L 333 0 
C 518 12 858 12 1056 12 
C 1254 12 1594 12 1779 0 
L 1779 166 
C 1338 166 1267 166 1267 453 
L 1267 2048 
z
M 1254 2182 
L 1254 3937 
C 1254 4153 1267 4185 1523 4185 
L 2170 4185 
C 2995 4185 3232 3715 3232 3187 
C 3232 2608 2950 2182 2170 2182 
L 1254 2182 
z
" transform="scale(0.015625)"/>
       <path id="CMR17-61" d="M 2304 1656 
C 2304 2048 2304 2275 2035 2534 
C 1798 2751 1523 2816 1306 2816 
C 800 2816 435 2408 435 1977 
C 435 1740 627 1728 666 1728 
C 749 1728 896 1779 896 1958 
C 896 2118 774 2188 666 2188 
C 640 2188 608 2182 589 2176 
C 723 2594 1069 2713 1293 2713 
C 1613 2713 1965 2421 1965 1875 
L 1965 1632 
C 1587 1619 1133 1568 774 1373 
C 371 1147 256 822 256 576 
C 256 77 832 -64 1171 -64 
C 1523 -64 1850 135 1990 505 
C 2003 219 2182 -39 2464 -39 
C 2598 -39 2938 51 2938 563 
L 2938 926 
L 2822 926 
L 2822 557 
C 2822 161 2650 109 2566 109 
C 2304 109 2304 446 2304 732 
L 2304 1656 
z
M 1965 887 
C 1965 323 1568 38 1216 38 
C 896 38 646 278 646 576 
C 646 771 730 1114 1101 1322 
C 1408 1497 1760 1523 1965 1536 
L 1965 887 
z
" transform="scale(0.015625)"/>
      </defs>
      <use xlink:href="#CMMI12-1b" transform="scale(0.996264)"/>
      <use xlink:href="#CMMI12-69" transform="translate(55.445461 -14.943915) scale(0.697382)"/>
      <use xlink:href="#CMMI12-6a" transform="translate(78.740368 -14.943915) scale(0.697382)"/>
      <use xlink:href="#CMR17-28" transform="translate(141.488051 0) scale(0.996264)"/>
      <use xlink:href="#CMR17-4d" transform="translate(176.768819 0) scale(0.996264)"/>
      <use xlink:href="#CMR17-50" transform="translate(261.455759 0) scale(0.996264)"/>
      <use xlink:href="#CMR17-61" transform="translate(321.439606 0) scale(0.996264)"/>
      <use xlink:href="#CMR17-29" transform="translate(367.130083 0) scale(0.996264)"/>
     </g>
    </g>
   </g>
   <g id="line2d_29">
    <path d="M 81 55.8 
L 86.072727 93.109537 
L 91.145455 116.003953 
L 96.218182 131.055178 
L 101.290909 141.475886 
L 106.363636 148.987639 
L 111.436364 154.580401 
L 116.509091 158.85622 
L 121.581818 162.198311 
L 126.654545 164.86 
L 131.727273 167.014186 
L 136.8 168.782143 
L 141.872727 170.250972 
L 146.945455 171.484537 
L 152.018182 172.530524 
L 157.090909 173.425122 
L 162.163636 174.196197 
L 167.236364 174.865486 
L 172.309091 175.450146 
L 177.381818 175.963866 
L 182.454545 176.417675 
L 187.527273 176.82054 
L 192.6 177.17981 
L 197.672727 177.501555 
L 202.745455 177.790825 
L 207.818182 178.051848 
L 212.890909 178.288186 
L 217.963636 178.502855 
L 223.036364 178.698426 
L 228.109091 178.877098 
L 233.181818 179.040765 
L 238.254545 179.19106 
L 243.327273 179.329402 
L 248.4 179.457025 
L 253.472727 179.575008 
L 258.545455 179.684299 
L 263.618182 179.785731 
L 268.690909 179.88004 
L 273.763636 179.967877 
L 278.836364 180.049821 
L 283.909091 180.126389 
L 288.981818 180.198039 
L 294.054545 180.265185 
L 299.127273 180.328196 
L 304.2 180.387405 
L 309.272727 180.443111 
L 314.345455 180.495587 
L 319.418182 180.545076 
L 324.490909 180.591801 
L 329.563636 180.635964 
L 334.636364 180.677749 
L 339.709091 180.717324 
L 344.781818 180.754842 
L 349.854545 180.790443 
L 354.927273 180.824256 
L 360 180.856398 
L 365.072727 180.886977 
L 370.145455 180.916094 
L 375.218182 180.94384 
L 380.290909 180.9703 
L 385.363636 180.995551 
L 390.436364 181.019668 
L 395.509091 181.042715 
L 400.581818 181.064757 
L 405.654545 181.08585 
L 410.727273 181.106048 
L 415.8 181.125402 
L 420.872727 181.143956 
L 425.945455 181.161756 
L 431.018182 181.178841 
L 436.090909 181.195249 
L 441.163636 181.211016 
L 446.236364 181.226173 
L 451.309091 181.240753 
L 456.381818 181.254785 
L 461.454545 181.268295 
L 466.527273 181.281309 
L 471.6 181.29385 
L 476.672727 181.305943 
L 481.745455 181.317607 
L 486.818182 181.328863 
L 491.890909 181.33973 
L 496.963636 181.350224 
L 502.036364 181.360364 
L 507.109091 181.370165 
L 512.181818 181.379642 
L 517.254545 181.388809 
L 522.327273 181.397679 
L 527.4 181.406265 
L 532.472727 181.414579 
L 537.545455 181.422633 
L 542.618182 181.430437 
L 547.690909 181.438001 
L 552.763636 181.445336 
L 557.836364 181.452449 
L 562.909091 181.459351 
L 567.981818 181.466049 
L 573.054545 181.472552 
L 578.127273 181.478866 
L 583.2 181.485 
" clip-path="url(#p274b559e55)" style="fill: none; stroke: #0075c4; stroke-linecap: square"/>
   </g>
   <g id="line2d_30">
    <path d="M 81 307.8 
L 86.072727 270.490463 
L 91.145455 247.596047 
L 96.218182 232.544822 
L 101.290909 222.124114 
L 106.363636 214.612361 
L 111.436364 209.019599 
L 116.509091 204.74378 
L 121.581818 201.401689 
L 126.654545 198.74 
L 131.727273 196.585814 
L 136.8 194.817857 
L 141.872727 193.349028 
L 146.945455 192.115463 
L 152.018182 191.069476 
L 157.090909 190.174878 
L 162.163636 189.403803 
L 167.236364 188.734514 
L 172.309091 188.149854 
L 177.381818 187.636134 
L 182.454545 187.182325 
L 187.527273 186.77946 
L 192.6 186.42019 
L 197.672727 186.098445 
L 202.745455 185.809175 
L 207.818182 185.548152 
L 212.890909 185.311814 
L 217.963636 185.097145 
L 223.036364 184.901574 
L 228.109091 184.722902 
L 233.181818 184.559235 
L 238.254545 184.40894 
L 243.327273 184.270598 
L 248.4 184.142975 
L 253.472727 184.024992 
L 258.545455 183.915701 
L 263.618182 183.814269 
L 268.690909 183.71996 
L 273.763636 183.632123 
L 278.836364 183.550179 
L 283.909091 183.473611 
L 288.981818 183.401961 
L 294.054545 183.334815 
L 299.127273 183.271804 
L 304.2 183.212595 
L 309.272727 183.156889 
L 314.345455 183.104413 
L 319.418182 183.054924 
L 324.490909 183.008199 
L 329.563636 182.964036 
L 334.636364 182.922251 
L 339.709091 182.882676 
L 344.781818 182.845158 
L 349.854545 182.809557 
L 354.927273 182.775744 
L 360 182.743602 
L 365.072727 182.713023 
L 370.145455 182.683906 
L 375.218182 182.65616 
L 380.290909 182.6297 
L 385.363636 182.604449 
L 390.436364 182.580332 
L 395.509091 182.557285 
L 400.581818 182.535243 
L 405.654545 182.51415 
L 410.727273 182.493952 
L 415.8 182.474598 
L 420.872727 182.456044 
L 425.945455 182.438244 
L 431.018182 182.421159 
L 436.090909 182.404751 
L 441.163636 182.388984 
L 446.236364 182.373827 
L 451.309091 182.359247 
L 456.381818 182.345215 
L 461.454545 182.331705 
L 466.527273 182.318691 
L 471.6 182.30615 
L 476.672727 182.294057 
L 481.745455 182.282393 
L 486.818182 182.271137 
L 491.890909 182.26027 
L 496.963636 182.249776 
L 502.036364 182.239636 
L 507.109091 182.229835 
L 512.181818 182.220358 
L 517.254545 182.211191 
L 522.327273 182.202321 
L 527.4 182.193735 
L 532.472727 182.185421 
L 537.545455 182.177367 
L 542.618182 182.169563 
L 547.690909 182.161999 
L 552.763636 182.154664 
L 557.836364 182.147551 
L 562.909091 182.140649 
L 567.981818 182.133951 
L 573.054545 182.127448 
L 578.127273 182.121134 
L 583.2 182.115 
" clip-path="url(#p274b559e55)" style="fill: none; stroke: #c4b100; stroke-linecap: square"/>
   </g>
   <g id="line2d_31">
    <path d="M 81 154.08 
L 86.072727 154.08 
L 91.145455 154.08 
L 96.218182 154.08 
L 101.290909 154.08 
L 106.363636 154.08 
L 111.436364 154.08 
L 116.509091 154.08 
L 121.581818 154.08 
L 126.654545 154.08 
L 131.727273 154.08 
L 136.8 154.08 
L 141.872727 154.08 
L 146.945455 154.08 
L 152.018182 154.08 
L 157.090909 154.08 
L 162.163636 154.08 
L 167.236364 154.08 
L 172.309091 154.08 
L 177.381818 154.08 
L 182.454545 154.08 
L 187.527273 154.08 
L 192.6 154.08 
L 197.672727 154.08 
L 202.745455 154.08 
L 207.818182 154.08 
L 212.890909 154.08 
L 217.963636 154.08 
L 223.036364 154.08 
L 228.109091 154.08 
L 233.181818 154.08 
L 238.254545 154.08 
L 243.327273 154.08 
L 248.4 154.08 
L 253.472727 154.08 
L 258.545455 154.08 
L 263.618182 154.08 
L 268.690909 154.08 
L 273.763636 154.08 
L 278.836364 154.08 
L 283.909091 154.08 
L 288.981818 154.08 
L 294.054545 154.08 
L 299.127273 154.08 
L 304.2 154.08 
L 309.272727 154.08 
L 314.345455 154.08 
L 319.418182 154.08 
L 324.490909 154.08 
L 329.563636 154.08 
L 334.636364 154.08 
L 339.709091 154.08 
L 344.781818 154.08 
L 349.854545 154.08 
L 354.927273 154.08 
L 360 154.08 
L 365.072727 154.08 
L 370.145455 154.08 
L 375.218182 154.08 
L 380.290909 154.08 
L 385.363636 154.08 
L 390.436364 154.08 
L 395.509091 154.08 
L 400.581818 154.08 
L 405.654545 154.08 
L 410.727273 154.08 
L 415.8 154.08 
L 420.872727 154.08 
L 425.945455 154.08 
L 431.018182 154.08 
L 436.090909 154.08 
L 441.163636 154.08 
L 446.236364 154.08 
L 451.309091 154.08 
L 456.381818 154.08 
L 461.454545 154.08 
L 466.527273 154.08 
L 471.6 154.08 
L 476.672727 154.08 
L 481.745455 154.08 
L 486.818182 154.08 
L 491.890909 154.08 
L 496.963636 154.08 
L 502.036364 154.08 
L 507.109091 154.08 
L 512.181818 154.08 
L 517.254545 154.08 
L 522.327273 154.08 
L 527.4 154.08 
L 532.472727 154.08 
L 537.545455 154.08 
L 542.618182 154.08 
L 547.690909 154.08 
L 552.763636 154.08 
L 557.836364 154.08 
L 562.909091 154.08 
L 567.981818 154.08 
L 573.054545 154.08 
L 578.127273 154.08 
L 583.2 154.08 
" clip-path="url(#p274b559e55)" style="fill: none; stroke: #c40013; stroke-linecap: square"/>
   </g>
   <g id="patch_3">
    <path d="M 81 320.4 
L 81 43.2 
" style="fill: none; stroke: #000000; stroke-width: 0.75; stroke-linejoin: miter; stroke-linecap: square"/>
   </g>
   <g id="patch_4">
    <path d="M 583.2 320.4 
L 583.2 43.2 
" style="fill: none; stroke: #000000; stroke-width: 0.75; stroke-linejoin: miter; stroke-linecap: square"/>
   </g>
   <g id="patch_5">
    <path d="M 81 320.4 
L 583.2 320.4 
" style="fill: none; stroke: #000000; stroke-width: 0.75; stroke-linejoin: miter; stroke-linecap: square"/>
   </g>
   <g id="patch_6">
    <path d="M 81 43.2 
L 583.2 43.2 
" style="fill: none; stroke: #000000; stroke-width: 0.75; stroke-linejoin: miter; stroke-linecap: square"/>
   </g>
   <g id="text_17">
    <!-- Tensões -->
    <g transform="translate(308.414947 37.2) scale(0.144 -0.144)">
     <defs>
      <path id="CMR17-54" d="M 3981 4332 
L 288 4332 
L 179 2924 
L 294 2924 
C 378 3981 467 4166 1453 4166 
C 1568 4166 1754 4166 1805 4159 
C 1926 4140 1926 4064 1926 3917 
L 1926 465 
C 1926 236 1907 166 1376 166 
L 1197 166 
L 1197 0 
C 1504 6 1824 12 2138 12 
C 2451 12 2771 6 3078 0 
L 3078 166 
L 2899 166 
C 2368 166 2349 236 2349 465 
L 2349 3917 
C 2349 4057 2349 4134 2464 4159 
C 2515 4166 2701 4166 2816 4166 
C 3795 4166 3891 3981 3974 2924 
L 4090 2924 
L 3981 4332 
z
" transform="scale(0.015625)"/>
      <path id="CMR17-65" d="M 2438 1503 
C 2464 1529 2464 1542 2464 1606 
C 2464 2251 2118 2816 1389 2816 
C 710 2816 173 2175 173 1394 
C 173 554 781 -64 1459 -64 
C 2176 -64 2458 619 2458 755 
C 2458 800 2419 800 2406 800 
C 2362 800 2355 787 2330 709 
C 2189 270 1837 51 1504 51 
C 1229 51 954 206 781 490 
C 582 819 582 1200 582 1503 
L 2438 1503 
z
M 589 1600 
C 634 2511 1126 2713 1382 2713 
C 1818 2713 2112 2308 2118 1600 
L 589 1600 
z
" transform="scale(0.015625)"/>
      <path id="CMR17-6e" d="M 2656 1954 
C 2656 2282 2592 2816 1837 2816 
C 1331 2816 1069 2424 973 2166 
L 966 2166 
L 966 2816 
L 211 2745 
L 211 2578 
C 589 2578 646 2540 646 2231 
L 646 443 
C 646 198 621 166 211 166 
L 211 0 
C 365 12 646 12 813 12 
C 979 12 1267 12 1421 0 
L 1421 166 
C 1011 166 986 192 986 443 
L 986 1678 
C 986 2269 1344 2713 1792 2713 
C 2266 2713 2317 2289 2317 1980 
L 2317 443 
C 2317 198 2291 166 1882 166 
L 1882 0 
C 2035 12 2317 12 2483 12 
C 2650 12 2938 12 3091 0 
L 3091 166 
C 2682 166 2656 192 2656 443 
L 2656 1954 
z
" transform="scale(0.015625)"/>
      <path id="CMR17-73" d="M 1978 2688 
C 1978 2803 1971 2809 1933 2809 
C 1907 2809 1901 2803 1824 2707 
C 1805 2681 1747 2617 1728 2592 
C 1523 2809 1235 2816 1126 2816 
C 416 2816 160 2444 160 2073 
C 160 1497 813 1363 998 1324 
C 1402 1241 1542 1216 1677 1100 
C 1760 1024 1901 883 1901 652 
C 1901 384 1747 38 1158 38 
C 602 38 403 460 288 1024 
C 269 1113 269 1120 218 1120 
C 166 1120 160 1113 160 985 
L 160 64 
C 160 -52 166 -58 205 -58 
C 237 -58 243 -52 275 0 
C 314 57 410 211 448 275 
C 576 102 800 -64 1158 -64 
C 1792 -64 2131 281 2131 780 
C 2131 1107 1958 1280 1875 1356 
C 1683 1555 1459 1600 1190 1651 
C 838 1728 390 1817 390 2208 
C 390 2374 480 2726 1126 2726 
C 1811 2726 1850 2086 1862 1881 
C 1869 1849 1901 1843 1920 1843 
C 1978 1843 1978 1862 1978 1971 
L 1978 2688 
z
" transform="scale(0.015625)"/>
      <path id="CMR17-7e" d="M 2400 4198 
C 2182 3987 2061 3865 1862 3865 
C 1722 3865 1626 3936 1491 4032 
C 1363 4121 1261 4198 1120 4198 
C 890 4198 730 4012 461 3718 
L 531 3648 
C 749 3859 870 3980 1069 3980 
C 1210 3980 1306 3910 1440 3814 
C 1568 3724 1670 3648 1811 3648 
C 2042 3648 2202 3833 2470 4128 
L 2400 4198 
z
" transform="scale(0.015625)"/>
      <path id="CMR17-6f" d="M 2758 1356 
C 2758 2176 2163 2816 1466 2816 
C 768 2816 173 2176 173 1356 
C 173 550 768 -64 1466 -64 
C 2163 -64 2758 550 2758 1356 
z
M 1466 51 
C 1165 51 909 230 762 480 
C 602 768 582 1126 582 1408 
C 582 1676 595 2009 762 2297 
C 890 2508 1139 2713 1466 2713 
C 1754 2713 1997 2553 2150 2329 
C 2349 2028 2349 1606 2349 1408 
C 2349 1158 2336 774 2163 467 
C 1984 172 1709 51 1466 51 
z
" transform="scale(0.015625)"/>
     </defs>
     <use xlink:href="#CMR17-54" transform="scale(0.996264)"/>
     <use xlink:href="#CMR17-65" transform="translate(58.702625 0) scale(0.996264)"/>
     <use xlink:href="#CMR17-6e" transform="translate(99.188286 0) scale(0.996264)"/>
     <use xlink:href="#CMR17-73" transform="translate(150.083655 0) scale(0.996264)"/>
     <use xlink:href="#CMR17-7e" transform="translate(185.884993 0) scale(0.996264)"/>
     <use xlink:href="#CMR17-6f" transform="translate(185.884993 0) scale(0.996264)"/>
     <use xlink:href="#CMR17-65" transform="translate(231.57547 0) scale(0.996264)"/>
     <use xlink:href="#CMR17-73" transform="translate(272.061131 0) scale(0.996264)"/>
    </g>
   </g>
   <g id="legend_1">
    <g id="patch_7">
     <path d="M 530.608512 93.011535 
L 576.2 93.011535 
Q 578.2 93.011535 578.2 91.011535 
L 578.2 50.2 
Q 578.2 48.2 576.2 48.2 
L 530.608512 48.2 
Q 528.608512 48.2 528.608512 50.2 
L 528.608512 91.011535 
Q 528.608512 93.011535 530.608512 93.011535 
z
" style="fill: #ffffff; opacity: 0.8; stroke: #cccccc; stroke-linejoin: miter"/>
    </g>
    <g id="line2d_32">
     <path d="M 532.608512 55.7 
L 542.608512 55.7 
L 552.608512 55.7 
" style="fill: none; stroke: #0075c4; stroke-linecap: square"/>
    </g>
    <g id="text_18">
     <!-- $\sigma_{rr}$ -->
     <g transform="translate(560.608512 59.2) scale(0.1 -0.1)">
      <defs>
       <path id="CMMI12-72" d="M 2490 2633 
C 2291 2598 2189 2457 2189 2316 
C 2189 2163 2310 2111 2400 2111 
C 2579 2111 2726 2265 2726 2457 
C 2726 2651 2528 2816 2208 2816 
C 1952 2816 1658 2700 1389 2335 
C 1344 2660 1088 2816 832 2816 
C 582 2816 454 2642 378 2508 
C 269 2278 173 1892 173 1860 
C 173 1834 198 1801 243 1801 
C 294 1801 301 1808 339 1957 
C 435 2342 557 2687 813 2687 
C 966 2687 1011 2604 1011 2419 
C 1011 2278 947 2028 902 1827 
L 723 1130 
C 698 1007 627 716 595 600 
C 550 432 480 128 480 96 
C 480 6 550 -64 646 -64 
C 717 -64 838 -20 877 109 
C 896 160 1133 1136 1171 1285 
C 1203 1427 1242 1562 1274 1705 
C 1299 1795 1325 1898 1344 1982 
C 1363 2040 1536 2355 1696 2495 
C 1773 2566 1939 2687 2202 2687 
C 2304 2687 2406 2674 2490 2633 
z
" transform="scale(0.015625)"/>
      </defs>
      <use xlink:href="#CMMI12-1b" transform="scale(0.996264)"/>
      <use xlink:href="#CMMI12-72" transform="translate(55.445461 -14.943915) scale(0.697382)"/>
      <use xlink:href="#CMMI12-72" transform="translate(88.11473 -14.943915) scale(0.697382)"/>
     </g>
    </g>
    <g id="line2d_33">
     <path d="M 532.608512 69.637178 
L 542.608512 69.637178 
L 552.608512 69.637178 
" style="fill: none; stroke: #c4b100; stroke-linecap: square"/>
    </g>
    <g id="text_19">
     <!-- $\sigma_{\theta\theta}$ -->
     <g transform="translate(560.608512 73.137178) scale(0.1 -0.1)">
      <defs>
       <path id="CMMI12-12" d="M 2835 3200 
C 2835 3849 2630 4480 2106 4480 
C 1210 4480 256 2615 256 1215 
C 256 922 320 -64 992 -64 
C 1862 -64 2835 1755 2835 3200 
z
M 896 2304 
C 992 2679 1126 3213 1382 3665 
C 1594 4046 1818 4351 2099 4351 
C 2310 4351 2451 4173 2451 3563 
C 2451 3334 2432 3016 2246 2304 
L 896 2304 
z
M 2202 2112 
C 2042 1488 1907 1088 1677 687 
C 1491 362 1267 64 998 64 
C 800 64 640 216 640 846 
C 640 1259 742 1692 845 2112 
L 2202 2112 
z
" transform="scale(0.015625)"/>
      </defs>
      <use xlink:href="#CMMI12-1b" transform="scale(0.996264)"/>
      <use xlink:href="#CMMI12-12" transform="translate(55.445461 -14.943915) scale(0.697382)"/>
      <use xlink:href="#CMMI12-12" transform="translate(89.163957 -14.943915) scale(0.697382)"/>
     </g>
    </g>
    <g id="line2d_34">
     <path d="M 532.608512 83.574357 
L 542.608512 83.574357 
L 552.608512 83.574357 
" style="fill: none; stroke: #c40013; stroke-linecap: square"/>
    </g>
    <g id="text_20">
     <!-- $\sigma_{zz}$ -->
     <g transform="translate(560.608512 87.074357) scale(0.1 -0.1)">
      <defs>
       <path id="CMMI12-7a" d="M 813 486 
C 1088 809 1312 1015 1632 1313 
C 2016 1657 2182 1822 2272 1922 
C 2720 2371 2944 2713 2944 2764 
C 2944 2816 2893 2816 2880 2816 
C 2835 2816 2822 2790 2790 2745 
C 2630 2470 2477 2368 2310 2368 
C 2176 2368 2106 2403 1984 2547 
C 1850 2707 1741 2816 1555 2816 
C 1088 2816 806 2265 806 2127 
C 806 2107 813 2067 870 2067 
C 922 2067 928 2094 947 2140 
C 1056 2387 1363 2415 1485 2415 
C 1619 2415 1747 2387 1882 2342 
C 2125 2239 2227 2239 2291 2239 
C 2336 2239 2362 2239 2394 2246 
C 2182 1988 1837 1670 1549 1399 
L 902 783 
C 512 380 275 32 275 -13 
C 275 -52 307 -64 346 -64 
C 384 -64 390 -58 435 19 
C 538 179 742 384 979 384 
C 1114 384 1178 356 1306 211 
C 1427 70 1536 -64 1741 -64 
C 2368 -64 2726 723 2726 876 
C 2726 902 2720 942 2656 942 
C 2605 942 2598 915 2579 849 
C 2438 460 2061 336 1811 336 
C 1677 336 1549 364 1414 409 
C 1158 512 1088 512 1005 512 
C 941 512 870 512 813 486 
z
" transform="scale(0.015625)"/>
      </defs>
      <use xlink:href="#CMMI12-1b" transform="scale(0.996264)"/>
      <use xlink:href="#CMMI12-7a" transform="translate(55.445461 -14.943915) scale(0.697382)"/>
      <use xlink:href="#CMMI12-7a" transform="translate(90.273884 -14.943915) scale(0.697382)"/>
     </g>
    </g>
   </g>
  </g>
 </g>
 <defs>
  <clipPath id="p274b559e55">
   <rect x="81" y="43.2" width="502.2" height="277.2"/>
  </clipPath>
 </defs>
</svg>
