<?xml version="1.0" encoding="utf-8" standalone="no"?>
<!DOCTYPE svg PUBLIC "-//W3C//DTD SVG 1.1//EN"
  "http://www.w3.org/Graphics/SVG/1.1/DTD/svg11.dtd">
<svg xmlns:xlink="http://www.w3.org/1999/xlink" width="648pt" height="360pt" viewBox="0 0 648 360" xmlns="http://www.w3.org/2000/svg" version="1.1">
 <metadata>
  <rdf:RDF xmlns:dc="http://purl.org/dc/elements/1.1/" xmlns:cc="http://creativecommons.org/ns#" xmlns:rdf="http://www.w3.org/1999/02/22-rdf-syntax-ns#">
   <cc:Work>
    <dc:type rdf:resource="http://purl.org/dc/dcmitype/StillImage"/>
    <dc:date>2023-11-09T13:40:55.018772</dc:date>
    <dc:format>image/svg+xml</dc:format>
    <dc:creator>
     <cc:Agent>
      <dc:title>Matplotlib v3.7.1, https://matplotlib.org/</dc:title>
     </cc:Agent>
    </dc:creator>
   </cc:Work>
  </rdf:RDF>
 </metadata>
 <defs>
  <style type="text/css">*{stroke-linejoin: round; stroke-linecap: butt}</style>
 </defs>
 <g id="figure_1">
  <g id="patch_1">
   <path d="M 0 360 
L 648 360 
L 648 0 
L 0 0 
z
" style="fill: #ffffff"/>
  </g>
  <g id="axes_1">
   <g id="patch_2">
    <path d="M 81 320.4 
L 583.2 320.4 
L 583.2 43.2 
L 81 43.2 
z
" style="fill: #ffffff"/>
   </g>
   <g id="PathCollection_1">
    <defs>
     <path id="m524aa6e070" d="M 0 1.581139 
C 0.419323 1.581139 0.821528 1.41454 1.118034 1.118034 
C 1.41454 0.821528 1.581139 0.419323 1.581139 0 
C 1.581139 -0.419323 1.41454 -0.821528 1.118034 -1.118034 
C 0.821528 -1.41454 0.419323 -1.581139 0 -1.581139 
C -0.419323 -1.581139 -0.821528 -1.41454 -1.118034 -1.118034 
C -1.41454 -0.821528 -1.581139 -0.419323 -1.581139 0 
C -1.581139 0.419323 -1.41454 0.821528 -1.118034 1.118034 
C -0.821528 1.41454 -0.419323 1.581139 0 1.581139 
z
" style="stroke: #0075c4"/>
    </defs>
    <g clip-path="url(#p78cf112fa9)">
     <use xlink:href="#m524aa6e070" x="81" y="307.8" style="fill: #0075c4; stroke: #0075c4"/>
     <use xlink:href="#m524aa6e070" x="106.11" y="178.789974" style="fill: #0075c4; stroke: #0075c4"/>
     <use xlink:href="#m524aa6e070" x="131.22" y="134.362261" style="fill: #0075c4; stroke: #0075c4"/>
     <use xlink:href="#m524aa6e070" x="156.33" y="111.946156" style="fill: #0075c4; stroke: #0075c4"/>
     <use xlink:href="#m524aa6e070" x="181.44" y="98.463519" style="fill: #0075c4; stroke: #0075c4"/>
     <use xlink:href="#m524aa6e070" x="206.55" y="89.497461" style="fill: #0075c4; stroke: #0075c4"/>
     <use xlink:href="#m524aa6e070" x="231.66" y="83.119424" style="fill: #0075c4; stroke: #0075c4"/>
     <use xlink:href="#m524aa6e070" x="256.77" y="78.390053" style="fill: #0075c4; stroke: #0075c4"/>
     <use xlink:href="#m524aa6e070" x="281.88" y="74.757237" style="fill: #0075c4; stroke: #0075c4"/>
     <use xlink:href="#m524aa6e070" x="306.99" y="71.868237" style="fill: #0075c4; stroke: #0075c4"/>
     <use xlink:href="#m524aa6e070" x="332.1" y="69.575442" style="fill: #0075c4; stroke: #0075c4"/>
     <use xlink:href="#m524aa6e070" x="357.21" y="67.681393" style="fill: #0075c4; stroke: #0075c4"/>
     <use xlink:href="#m524aa6e070" x="382.32" y="66.130497" style="fill: #0075c4; stroke: #0075c4"/>
     <use xlink:href="#m524aa6e070" x="407.43" y="64.819232" style="fill: #0075c4; stroke: #0075c4"/>
     <use xlink:href="#m524aa6e070" x="432.54" y="63.716926" style="fill: #0075c4; stroke: #0075c4"/>
     <use xlink:href="#m524aa6e070" x="457.65" y="62.754566" style="fill: #0075c4; stroke: #0075c4"/>
     <use xlink:href="#m524aa6e070" x="482.76" y="61.920647" style="fill: #0075c4; stroke: #0075c4"/>
     <use xlink:href="#m524aa6e070" x="507.87" y="61.155743" style="fill: #0075c4; stroke: #0075c4"/>
     <use xlink:href="#m524aa6e070" x="532.98" y="60.449501" style="fill: #0075c4; stroke: #0075c4"/>
     <use xlink:href="#m524aa6e070" x="558.09" y="59.746325" style="fill: #0075c4; stroke: #0075c4"/>
     <use xlink:href="#m524aa6e070" x="583.2" y="59.018995" style="fill: #0075c4; stroke: #0075c4"/>
    </g>
   </g>
   <g id="matplotlib.axis_1">
    <g id="xtick_1">
     <g id="line2d_1">
      <path d="M 160.294737 320.4 
L 160.294737 43.2 
" clip-path="url(#p78cf112fa9)" style="fill: none; stroke: #b0b0b0; stroke-width: 0.8; stroke-linecap: square"/>
     </g>
     <g id="line2d_2">
      <defs>
       <path id="mac840268d7" d="M 0 0 
L 0 3.5 
" style="stroke: #000000; stroke-width: 0.8"/>
      </defs>
      <g>
       <use xlink:href="#mac840268d7" x="160.294737" y="320.4" style="stroke: #000000; stroke-width: 0.8"/>
      </g>
     </g>
     <g id="text_1">
      <!-- $\mathdefault{20}$ -->
      <g transform="translate(154.441747 335.70218) scale(0.12 -0.12)">
       <defs>
        <path id="CMR17-32" d="M 2669 990 
L 2554 990 
C 2490 537 2438 460 2413 422 
C 2381 371 1920 371 1830 371 
L 602 371 
C 832 620 1280 1073 1824 1596 
C 2214 1966 2669 2400 2669 3033 
C 2669 3788 2067 4224 1395 4224 
C 691 4224 262 3603 262 3027 
C 262 2777 448 2745 525 2745 
C 589 2745 781 2783 781 3007 
C 781 3206 614 3264 525 3264 
C 486 3264 448 3257 422 3244 
C 544 3788 915 4057 1306 4057 
C 1862 4057 2227 3616 2227 3033 
C 2227 2477 1901 1998 1536 1583 
L 262 147 
L 262 0 
L 2515 0 
L 2669 990 
z
" transform="scale(0.015625)"/>
        <path id="CMR17-30" d="M 2688 2038 
C 2688 2430 2682 3099 2413 3613 
C 2176 4063 1798 4224 1466 4224 
C 1158 4224 768 4082 525 3620 
C 269 3137 243 2539 243 2038 
C 243 1671 250 1112 448 623 
C 723 -39 1216 -128 1466 -128 
C 1760 -128 2208 -7 2470 604 
C 2662 1048 2688 1568 2688 2038 
z
M 1466 -26 
C 1056 -26 813 328 723 816 
C 653 1196 653 1749 653 2109 
C 653 2604 653 3015 736 3407 
C 858 3954 1216 4121 1466 4121 
C 1728 4121 2067 3947 2189 3420 
C 2272 3054 2278 2623 2278 2109 
C 2278 1691 2278 1176 2202 797 
C 2067 96 1690 -26 1466 -26 
z
" transform="scale(0.015625)"/>
       </defs>
       <use xlink:href="#CMR17-32" transform="scale(0.996264)"/>
       <use xlink:href="#CMR17-30" transform="translate(45.690477 0) scale(0.996264)"/>
      </g>
     </g>
    </g>
    <g id="xtick_2">
     <g id="line2d_3">
      <path d="M 266.021053 320.4 
L 266.021053 43.2 
" clip-path="url(#p78cf112fa9)" style="fill: none; stroke: #b0b0b0; stroke-width: 0.8; stroke-linecap: square"/>
     </g>
     <g id="line2d_4">
      <g>
       <use xlink:href="#mac840268d7" x="266.021053" y="320.4" style="stroke: #000000; stroke-width: 0.8"/>
      </g>
     </g>
     <g id="text_2">
      <!-- $\mathdefault{40}$ -->
      <g transform="translate(260.168062 335.70218) scale(0.12 -0.12)">
       <defs>
        <path id="CMR17-34" d="M 2150 4147 
C 2150 4281 2144 4288 2029 4288 
L 128 1254 
L 128 1088 
L 1779 1088 
L 1779 460 
C 1779 230 1766 166 1318 166 
L 1197 166 
L 1197 0 
C 1402 12 1747 12 1965 12 
C 2182 12 2528 12 2733 0 
L 2733 166 
L 2611 166 
C 2163 166 2150 230 2150 460 
L 2150 1088 
L 2803 1088 
L 2803 1254 
L 2150 1254 
L 2150 4147 
z
M 1798 3723 
L 1798 1254 
L 256 1254 
L 1798 3723 
z
" transform="scale(0.015625)"/>
       </defs>
       <use xlink:href="#CMR17-34" transform="scale(0.996264)"/>
       <use xlink:href="#CMR17-30" transform="translate(45.690477 0) scale(0.996264)"/>
      </g>
     </g>
    </g>
    <g id="xtick_3">
     <g id="line2d_5">
      <path d="M 371.747368 320.4 
L 371.747368 43.2 
" clip-path="url(#p78cf112fa9)" style="fill: none; stroke: #b0b0b0; stroke-width: 0.8; stroke-linecap: square"/>
     </g>
     <g id="line2d_6">
      <g>
       <use xlink:href="#mac840268d7" x="371.747368" y="320.4" style="stroke: #000000; stroke-width: 0.8"/>
      </g>
     </g>
     <g id="text_3">
      <!-- $\mathdefault{60}$ -->
      <g transform="translate(365.894378 335.70218) scale(0.12 -0.12)">
       <defs>
        <path id="CMR17-36" d="M 678 2198 
C 678 3712 1395 4076 1811 4076 
C 1946 4076 2272 4049 2400 3782 
C 2298 3782 2106 3782 2106 3558 
C 2106 3385 2246 3328 2336 3328 
C 2394 3328 2566 3353 2566 3571 
C 2566 3987 2246 4224 1805 4224 
C 1043 4224 243 3411 243 2011 
C 243 257 966 -128 1478 -128 
C 2099 -128 2688 431 2688 1295 
C 2688 2101 2170 2688 1517 2688 
C 1126 2688 838 2430 678 1979 
L 678 2198 
z
M 1478 25 
C 691 25 691 1212 691 1450 
C 691 1914 909 2585 1504 2585 
C 1613 2585 1926 2585 2138 2140 
C 2253 1889 2253 1624 2253 1302 
C 2253 954 2253 696 2118 438 
C 1978 173 1773 25 1478 25 
z
" transform="scale(0.015625)"/>
       </defs>
       <use xlink:href="#CMR17-36" transform="scale(0.996264)"/>
       <use xlink:href="#CMR17-30" transform="translate(45.690477 0) scale(0.996264)"/>
      </g>
     </g>
    </g>
    <g id="xtick_4">
     <g id="line2d_7">
      <path d="M 477.473684 320.4 
L 477.473684 43.2 
" clip-path="url(#p78cf112fa9)" style="fill: none; stroke: #b0b0b0; stroke-width: 0.8; stroke-linecap: square"/>
     </g>
     <g id="line2d_8">
      <g>
       <use xlink:href="#mac840268d7" x="477.473684" y="320.4" style="stroke: #000000; stroke-width: 0.8"/>
      </g>
     </g>
     <g id="text_4">
      <!-- $\mathdefault{80}$ -->
      <g transform="translate(471.620694 335.70218) scale(0.12 -0.12)">
       <defs>
        <path id="CMR17-38" d="M 1741 2289 
C 2144 2494 2554 2803 2554 3298 
C 2554 3884 1990 4224 1472 4224 
C 890 4224 378 3800 378 3215 
C 378 3054 416 2777 666 2533 
C 730 2469 998 2276 1171 2154 
C 883 2006 211 1652 211 945 
C 211 282 838 -128 1459 -128 
C 2144 -128 2720 366 2720 1022 
C 2720 1607 2330 1877 2074 2051 
L 1741 2289 
z
M 902 2855 
C 851 2887 595 3086 595 3388 
C 595 3781 998 4076 1459 4076 
C 1965 4076 2336 3716 2336 3298 
C 2336 2700 1670 2359 1638 2359 
C 1632 2359 1626 2359 1574 2398 
L 902 2855 
z
M 2080 1536 
C 2176 1466 2483 1253 2483 861 
C 2483 385 2010 25 1472 25 
C 890 25 448 443 448 951 
C 448 1459 838 1884 1280 2083 
L 2080 1536 
z
" transform="scale(0.015625)"/>
       </defs>
       <use xlink:href="#CMR17-38" transform="scale(0.996264)"/>
       <use xlink:href="#CMR17-30" transform="translate(45.690477 0) scale(0.996264)"/>
      </g>
     </g>
    </g>
    <g id="xtick_5">
     <g id="line2d_9">
      <path d="M 583.2 320.4 
L 583.2 43.2 
" clip-path="url(#p78cf112fa9)" style="fill: none; stroke: #b0b0b0; stroke-width: 0.8; stroke-linecap: square"/>
     </g>
     <g id="line2d_10">
      <g>
       <use xlink:href="#mac840268d7" x="583.2" y="320.4" style="stroke: #000000; stroke-width: 0.8"/>
      </g>
     </g>
     <g id="text_5">
      <!-- $\mathdefault{100}$ -->
      <g transform="translate(574.420515 335.70218) scale(0.12 -0.12)">
       <defs>
        <path id="CMR17-31" d="M 1702 4083 
C 1702 4217 1696 4224 1606 4224 
C 1357 3927 979 3833 621 3820 
C 602 3820 570 3820 563 3808 
C 557 3795 557 3782 557 3648 
C 755 3648 1088 3686 1344 3839 
L 1344 467 
C 1344 243 1331 166 781 166 
L 589 166 
L 589 0 
C 896 6 1216 12 1523 12 
C 1830 12 2150 6 2458 0 
L 2458 166 
L 2266 166 
C 1715 166 1702 236 1702 467 
L 1702 4083 
z
" transform="scale(0.015625)"/>
       </defs>
       <use xlink:href="#CMR17-31" transform="scale(0.996264)"/>
       <use xlink:href="#CMR17-30" transform="translate(45.690477 0) scale(0.996264)"/>
       <use xlink:href="#CMR17-30" transform="translate(91.380954 0) scale(0.996264)"/>
      </g>
     </g>
    </g>
    <g id="text_6">
     <!-- r (m) -->
     <g transform="translate(318.443023 350.993152) scale(0.12 -0.12)">
      <defs>
       <path id="CMR17-72" d="M 960 1517 
C 960 2134 1222 2713 1702 2713 
C 1747 2713 1792 2707 1837 2687 
C 1837 2687 1696 2642 1696 2475 
C 1696 2321 1818 2257 1914 2257 
C 1990 2257 2131 2302 2131 2482 
C 2131 2687 1926 2816 1709 2816 
C 1222 2816 1011 2340 947 2115 
L 941 2115 
L 941 2816 
L 198 2745 
L 198 2578 
C 576 2578 634 2540 634 2231 
L 634 443 
C 634 198 608 166 198 166 
L 198 0 
C 352 12 646 12 813 12 
C 998 12 1325 12 1498 0 
L 1498 166 
C 1037 166 960 166 960 455 
L 960 1517 
z
" transform="scale(0.015625)"/>
       <path id="CMR17-28" d="M 1958 -1562 
C 1958 -1556 1958 -1543 1939 -1524 
C 1645 -1223 858 -403 858 1596 
C 858 3595 1632 4408 1946 4729 
C 1946 4735 1958 4748 1958 4767 
C 1958 4787 1939 4800 1914 4800 
C 1843 4800 1299 4325 986 3620 
C 666 2909 576 2218 576 1603 
C 576 1141 621 360 1005 -467 
C 1312 -1133 1837 -1600 1914 -1600 
C 1946 -1600 1958 -1588 1958 -1562 
z
" transform="scale(0.015625)"/>
       <path id="CMR17-6d" d="M 4326 1954 
C 4326 2276 4269 2816 3507 2816 
C 3072 2816 2771 2520 2656 2173 
L 2650 2173 
C 2573 2700 2195 2816 1837 2816 
C 1331 2816 1069 2424 973 2166 
L 966 2166 
L 966 2816 
L 211 2745 
L 211 2578 
C 589 2578 646 2540 646 2231 
L 646 443 
C 646 198 621 166 211 166 
L 211 0 
C 365 12 646 12 813 12 
C 979 12 1267 12 1421 0 
L 1421 166 
C 1011 166 986 192 986 443 
L 986 1678 
C 986 2269 1344 2713 1792 2713 
C 2266 2713 2317 2289 2317 1980 
L 2317 443 
C 2317 198 2291 166 1882 166 
L 1882 0 
C 2035 12 2317 12 2483 12 
C 2650 12 2938 12 3091 0 
L 3091 166 
C 2682 166 2656 192 2656 443 
L 2656 1678 
C 2656 2269 3014 2713 3462 2713 
C 3936 2713 3987 2289 3987 1980 
L 3987 443 
C 3987 198 3962 166 3552 166 
L 3552 0 
C 3706 12 3987 12 4154 12 
C 4320 12 4608 12 4762 0 
L 4762 166 
C 4352 166 4326 192 4326 443 
L 4326 1954 
z
" transform="scale(0.015625)"/>
       <path id="CMR17-29" d="M 1683 1596 
C 1683 2057 1638 2839 1254 3665 
C 947 4332 422 4800 346 4800 
C 326 4800 301 4793 301 4761 
C 301 4748 307 4742 314 4729 
C 621 4408 1402 3595 1402 1603 
C 1402 -396 627 -1210 314 -1530 
C 307 -1543 301 -1549 301 -1562 
C 301 -1594 326 -1600 346 -1600 
C 416 -1600 960 -1127 1274 -422 
C 1594 289 1683 981 1683 1596 
z
" transform="scale(0.015625)"/>
      </defs>
      <use xlink:href="#CMR17-72" transform="scale(0.996264)"/>
      <use xlink:href="#CMR17-28" transform="translate(65.356734 0) scale(0.996264)"/>
      <use xlink:href="#CMR17-6d" transform="translate(100.637502 0) scale(0.996264)"/>
      <use xlink:href="#CMR17-29" transform="translate(177.557092 0) scale(0.996264)"/>
     </g>
    </g>
   </g>
   <g id="matplotlib.axis_2">
    <g id="ytick_1">
     <g id="line2d_11">
      <path d="M 81 310.963138 
L 583.2 310.963138 
" clip-path="url(#p78cf112fa9)" style="fill: none; stroke: #b0b0b0; stroke-width: 0.8; stroke-linecap: square"/>
     </g>
     <g id="line2d_12">
      <defs>
       <path id="m7f4a3bab7c" d="M 0 0 
L -3.5 0 
" style="stroke: #000000; stroke-width: 0.8"/>
      </defs>
      <g>
       <use xlink:href="#m7f4a3bab7c" x="81" y="310.963138" style="stroke: #000000; stroke-width: 0.8"/>
      </g>
     </g>
     <g id="text_7">
      <!-- $\mathdefault{-0.14}$ -->
      <g transform="translate(43.890879 315.114228) scale(0.12 -0.12)">
       <defs>
        <path id="CMSY10-0" d="M 4218 1472 
C 4326 1472 4442 1472 4442 1600 
C 4442 1728 4326 1728 4218 1728 
L 755 1728 
C 646 1728 531 1728 531 1600 
C 531 1472 646 1472 755 1472 
L 4218 1472 
z
" transform="scale(0.015625)"/>
        <path id="CMMI12-3a" d="M 1178 307 
C 1178 492 1024 620 870 620 
C 685 620 557 467 557 313 
C 557 128 710 0 864 0 
C 1050 0 1178 153 1178 307 
z
" transform="scale(0.015625)"/>
       </defs>
       <use xlink:href="#CMSY10-0" transform="scale(0.996264)"/>
       <use xlink:href="#CMR17-30" transform="translate(77.487468 0) scale(0.996264)"/>
       <use xlink:href="#CMMI12-3a" transform="translate(123.177945 0) scale(0.996264)"/>
       <use xlink:href="#CMR17-31" transform="translate(150.275122 0) scale(0.996264)"/>
       <use xlink:href="#CMR17-34" transform="translate(195.965599 0) scale(0.996264)"/>
      </g>
     </g>
    </g>
    <g id="ytick_2">
     <g id="line2d_13">
      <path d="M 81 272.62207 
L 583.2 272.62207 
" clip-path="url(#p78cf112fa9)" style="fill: none; stroke: #b0b0b0; stroke-width: 0.8; stroke-linecap: square"/>
     </g>
     <g id="line2d_14">
      <g>
       <use xlink:href="#m7f4a3bab7c" x="81" y="272.62207" style="stroke: #000000; stroke-width: 0.8"/>
      </g>
     </g>
     <g id="text_8">
      <!-- $\mathdefault{-0.12}$ -->
      <g transform="translate(43.890879 276.77316) scale(0.12 -0.12)">
       <use xlink:href="#CMSY10-0" transform="scale(0.996264)"/>
       <use xlink:href="#CMR17-30" transform="translate(77.487468 0) scale(0.996264)"/>
       <use xlink:href="#CMMI12-3a" transform="translate(123.177945 0) scale(0.996264)"/>
       <use xlink:href="#CMR17-31" transform="translate(150.275122 0) scale(0.996264)"/>
       <use xlink:href="#CMR17-32" transform="translate(195.965599 0) scale(0.996264)"/>
      </g>
     </g>
    </g>
    <g id="ytick_3">
     <g id="line2d_15">
      <path d="M 81 234.281002 
L 583.2 234.281002 
" clip-path="url(#p78cf112fa9)" style="fill: none; stroke: #b0b0b0; stroke-width: 0.8; stroke-linecap: square"/>
     </g>
     <g id="line2d_16">
      <g>
       <use xlink:href="#m7f4a3bab7c" x="81" y="234.281002" style="stroke: #000000; stroke-width: 0.8"/>
      </g>
     </g>
     <g id="text_9">
      <!-- $\mathdefault{-0.10}$ -->
      <g transform="translate(43.890879 238.432092) scale(0.12 -0.12)">
       <use xlink:href="#CMSY10-0" transform="scale(0.996264)"/>
       <use xlink:href="#CMR17-30" transform="translate(77.487468 0) scale(0.996264)"/>
       <use xlink:href="#CMMI12-3a" transform="translate(123.177945 0) scale(0.996264)"/>
       <use xlink:href="#CMR17-31" transform="translate(150.275122 0) scale(0.996264)"/>
       <use xlink:href="#CMR17-30" transform="translate(195.965599 0) scale(0.996264)"/>
      </g>
     </g>
    </g>
    <g id="ytick_4">
     <g id="line2d_17">
      <path d="M 81 195.939934 
L 583.2 195.939934 
" clip-path="url(#p78cf112fa9)" style="fill: none; stroke: #b0b0b0; stroke-width: 0.8; stroke-linecap: square"/>
     </g>
     <g id="line2d_18">
      <g>
       <use xlink:href="#m7f4a3bab7c" x="81" y="195.939934" style="stroke: #000000; stroke-width: 0.8"/>
      </g>
     </g>
     <g id="text_10">
      <!-- $\mathdefault{-0.08}$ -->
      <g transform="translate(43.890879 200.091024) scale(0.12 -0.12)">
       <use xlink:href="#CMSY10-0" transform="scale(0.996264)"/>
       <use xlink:href="#CMR17-30" transform="translate(77.487468 0) scale(0.996264)"/>
       <use xlink:href="#CMMI12-3a" transform="translate(123.177945 0) scale(0.996264)"/>
       <use xlink:href="#CMR17-30" transform="translate(150.275122 0) scale(0.996264)"/>
       <use xlink:href="#CMR17-38" transform="translate(195.965599 0) scale(0.996264)"/>
      </g>
     </g>
    </g>
    <g id="ytick_5">
     <g id="line2d_19">
      <path d="M 81 157.598866 
L 583.2 157.598866 
" clip-path="url(#p78cf112fa9)" style="fill: none; stroke: #b0b0b0; stroke-width: 0.8; stroke-linecap: square"/>
     </g>
     <g id="line2d_20">
      <g>
       <use xlink:href="#m7f4a3bab7c" x="81" y="157.598866" style="stroke: #000000; stroke-width: 0.8"/>
      </g>
     </g>
     <g id="text_11">
      <!-- $\mathdefault{-0.06}$ -->
      <g transform="translate(43.890879 161.749956) scale(0.12 -0.12)">
       <use xlink:href="#CMSY10-0" transform="scale(0.996264)"/>
       <use xlink:href="#CMR17-30" transform="translate(77.487468 0) scale(0.996264)"/>
       <use xlink:href="#CMMI12-3a" transform="translate(123.177945 0) scale(0.996264)"/>
       <use xlink:href="#CMR17-30" transform="translate(150.275122 0) scale(0.996264)"/>
       <use xlink:href="#CMR17-36" transform="translate(195.965599 0) scale(0.996264)"/>
      </g>
     </g>
    </g>
    <g id="ytick_6">
     <g id="line2d_21">
      <path d="M 81 119.257798 
L 583.2 119.257798 
" clip-path="url(#p78cf112fa9)" style="fill: none; stroke: #b0b0b0; stroke-width: 0.8; stroke-linecap: square"/>
     </g>
     <g id="line2d_22">
      <g>
       <use xlink:href="#m7f4a3bab7c" x="81" y="119.257798" style="stroke: #000000; stroke-width: 0.8"/>
      </g>
     </g>
     <g id="text_12">
      <!-- $\mathdefault{-0.04}$ -->
      <g transform="translate(43.890879 123.408887) scale(0.12 -0.12)">
       <use xlink:href="#CMSY10-0" transform="scale(0.996264)"/>
       <use xlink:href="#CMR17-30" transform="translate(77.487468 0) scale(0.996264)"/>
       <use xlink:href="#CMMI12-3a" transform="translate(123.177945 0) scale(0.996264)"/>
       <use xlink:href="#CMR17-30" transform="translate(150.275122 0) scale(0.996264)"/>
       <use xlink:href="#CMR17-34" transform="translate(195.965599 0) scale(0.996264)"/>
      </g>
     </g>
    </g>
    <g id="ytick_7">
     <g id="line2d_23">
      <path d="M 81 80.916729 
L 583.2 80.916729 
" clip-path="url(#p78cf112fa9)" style="fill: none; stroke: #b0b0b0; stroke-width: 0.8; stroke-linecap: square"/>
     </g>
     <g id="line2d_24">
      <g>
       <use xlink:href="#m7f4a3bab7c" x="81" y="80.916729" style="stroke: #000000; stroke-width: 0.8"/>
      </g>
     </g>
     <g id="text_13">
      <!-- $\mathdefault{-0.02}$ -->
      <g transform="translate(43.890879 85.067819) scale(0.12 -0.12)">
       <use xlink:href="#CMSY10-0" transform="scale(0.996264)"/>
       <use xlink:href="#CMR17-30" transform="translate(77.487468 0) scale(0.996264)"/>
       <use xlink:href="#CMMI12-3a" transform="translate(123.177945 0) scale(0.996264)"/>
       <use xlink:href="#CMR17-30" transform="translate(150.275122 0) scale(0.996264)"/>
       <use xlink:href="#CMR17-32" transform="translate(195.965599 0) scale(0.996264)"/>
      </g>
     </g>
    </g>
    <g id="text_14">
     <!-- u (m) -->
     <g transform="translate(36.902087 196.432476) rotate(-90) scale(0.12 -0.12)">
      <defs>
       <path id="CMR17-75" d="M 1882 2745 
L 1882 2579 
C 2259 2579 2317 2540 2317 2229 
L 2317 1053 
C 2317 510 2029 38 1555 38 
C 1030 38 986 355 986 691 
L 986 2816 
L 211 2745 
L 211 2579 
C 467 2579 640 2579 646 2320 
L 646 1079 
C 646 646 646 368 813 187 
C 896 103 1056 -64 1517 -64 
C 2061 -64 2272 400 2323 536 
L 2330 536 
L 2330 -64 
L 3091 -13 
L 3091 154 
C 2714 154 2656 193 2656 503 
L 2656 2816 
L 1882 2745 
z
" transform="scale(0.015625)"/>
      </defs>
      <use xlink:href="#CMR17-75" transform="scale(0.996264)"/>
      <use xlink:href="#CMR17-28" transform="translate(80.971336 0) scale(0.996264)"/>
      <use xlink:href="#CMR17-6d" transform="translate(116.252104 0) scale(0.996264)"/>
      <use xlink:href="#CMR17-29" transform="translate(193.171694 0) scale(0.996264)"/>
     </g>
    </g>
   </g>
   <g id="line2d_25">
    <path d="M 81 307.062434 
L 86.072727 264.475581 
L 91.145455 233.701139 
L 96.218182 210.423036 
L 101.290909 192.199607 
L 106.363636 177.545715 
L 111.436364 165.506133 
L 116.509091 155.438551 
L 121.581818 146.895145 
L 126.654545 139.554145 
L 131.727273 133.178397 
L 136.8 127.589267 
L 141.872727 122.649638 
L 146.945455 118.252512 
L 152.018182 114.31317 
L 157.090909 110.763657 
L 162.163636 107.548839 
L 167.236364 104.623506 
L 172.309091 101.950243 
L 177.381818 99.497815 
L 182.454545 97.239942 
L 187.527273 95.154357 
L 192.6 93.222065 
L 197.672727 91.426763 
L 202.745455 89.754383 
L 207.818182 88.192718 
L 212.890909 86.731126 
L 217.963636 85.360286 
L 223.036364 84.072001 
L 228.109091 82.859031 
L 233.181818 81.71496 
L 238.254545 80.634078 
L 243.327273 79.611291 
L 248.4 78.642039 
L 253.472727 77.722226 
L 258.545455 76.848162 
L 263.618182 76.016518 
L 268.690909 75.224278 
L 273.763636 74.468707 
L 278.836364 73.747317 
L 283.909091 73.057839 
L 288.981818 72.398202 
L 294.054545 71.766509 
L 299.127273 71.161022 
L 304.2 70.580143 
L 309.272727 70.022402 
L 314.345455 69.486443 
L 319.418182 68.971015 
L 324.490909 68.47496 
L 329.563636 67.997206 
L 334.636364 67.536758 
L 339.709091 67.092694 
L 344.781818 66.664153 
L 349.854545 66.250336 
L 354.927273 65.850497 
L 360 65.46394 
L 365.072727 65.090013 
L 370.145455 64.728107 
L 375.218182 64.377652 
L 380.290909 64.038113 
L 385.363636 63.708987 
L 390.436364 63.389803 
L 395.509091 63.080118 
L 400.581818 62.779512 
L 405.654545 62.487593 
L 410.727273 62.20399 
L 415.8 61.928352 
L 420.872727 61.660348 
L 425.945455 61.399666 
L 431.018182 61.146009 
L 436.090909 60.899098 
L 441.163636 60.658666 
L 446.236364 60.424462 
L 451.309091 60.196247 
L 456.381818 59.973795 
L 461.454545 59.756889 
L 466.527273 59.545325 
L 471.6 59.338908 
L 476.672727 59.137452 
L 481.745455 58.94078 
L 486.818182 58.748725 
L 491.890909 58.561126 
L 496.963636 58.377828 
L 502.036364 58.198687 
L 507.109091 58.023561 
L 512.181818 57.852319 
L 517.254545 57.684831 
L 522.327273 57.520976 
L 527.4 57.360636 
L 532.472727 57.203701 
L 537.545455 57.050062 
L 542.618182 56.899617 
L 547.690909 56.752267 
L 552.763636 56.607918 
L 557.836364 56.466479 
L 562.909091 56.327862 
L 567.981818 56.191985 
L 573.054545 56.058767 
L 578.127273 55.92813 
L 583.2 55.8 
" clip-path="url(#p78cf112fa9)" style="fill: none; stroke: #0075c4; stroke-linecap: square"/>
   </g>
   <g id="patch_3">
    <path d="M 81 320.4 
L 81 43.2 
" style="fill: none; stroke: #000000; stroke-width: 0.75; stroke-linejoin: miter; stroke-linecap: square"/>
   </g>
   <g id="patch_4">
    <path d="M 583.2 320.4 
L 583.2 43.2 
" style="fill: none; stroke: #000000; stroke-width: 0.75; stroke-linejoin: miter; stroke-linecap: square"/>
   </g>
   <g id="patch_5">
    <path d="M 81 320.4 
L 583.2 320.4 
" style="fill: none; stroke: #000000; stroke-width: 0.75; stroke-linejoin: miter; stroke-linecap: square"/>
   </g>
   <g id="patch_6">
    <path d="M 81 43.2 
L 583.2 43.2 
" style="fill: none; stroke: #000000; stroke-width: 0.75; stroke-linejoin: miter; stroke-linecap: square"/>
   </g>
   <g id="text_15">
    <!-- Deslocamentos -->
    <g transform="translate(286.857725 37.2) scale(0.144 -0.144)">
     <defs>
      <path id="CMR17-44" d="M 333 4352 
L 333 4185 
C 774 4185 845 4185 845 3898 
L 845 453 
C 845 166 774 166 333 166 
L 333 0 
L 2368 0 
C 3398 0 4224 943 4224 2140 
C 4224 3344 3411 4352 2368 4352 
L 333 4352 
z
M 1523 166 
C 1267 166 1254 198 1254 414 
L 1254 3936 
C 1254 4153 1267 4185 1523 4185 
L 2240 4185 
C 2771 4185 3750 3873 3750 2140 
C 3750 1242 3488 879 3366 707 
C 3213 510 2848 166 2240 166 
L 1523 166 
z
" transform="scale(0.015625)"/>
      <path id="CMR17-65" d="M 2438 1503 
C 2464 1529 2464 1542 2464 1606 
C 2464 2251 2118 2816 1389 2816 
C 710 2816 173 2175 173 1394 
C 173 554 781 -64 1459 -64 
C 2176 -64 2458 619 2458 755 
C 2458 800 2419 800 2406 800 
C 2362 800 2355 787 2330 709 
C 2189 270 1837 51 1504 51 
C 1229 51 954 206 781 490 
C 582 819 582 1200 582 1503 
L 2438 1503 
z
M 589 1600 
C 634 2511 1126 2713 1382 2713 
C 1818 2713 2112 2308 2118 1600 
L 589 1600 
z
" transform="scale(0.015625)"/>
      <path id="CMR17-73" d="M 1978 2688 
C 1978 2803 1971 2809 1933 2809 
C 1907 2809 1901 2803 1824 2707 
C 1805 2681 1747 2617 1728 2592 
C 1523 2809 1235 2816 1126 2816 
C 416 2816 160 2444 160 2073 
C 160 1497 813 1363 998 1324 
C 1402 1241 1542 1216 1677 1100 
C 1760 1024 1901 883 1901 652 
C 1901 384 1747 38 1158 38 
C 602 38 403 460 288 1024 
C 269 1113 269 1120 218 1120 
C 166 1120 160 1113 160 985 
L 160 64 
C 160 -52 166 -58 205 -58 
C 237 -58 243 -52 275 0 
C 314 57 410 211 448 275 
C 576 102 800 -64 1158 -64 
C 1792 -64 2131 281 2131 780 
C 2131 1107 1958 1280 1875 1356 
C 1683 1555 1459 1600 1190 1651 
C 838 1728 390 1817 390 2208 
C 390 2374 480 2726 1126 2726 
C 1811 2726 1850 2086 1862 1881 
C 1869 1849 1901 1843 1920 1843 
C 1978 1843 1978 1862 1978 1971 
L 1978 2688 
z
" transform="scale(0.015625)"/>
      <path id="CMR17-6c" d="M 979 4416 
L 218 4345 
L 218 4179 
C 595 4179 653 4141 653 3835 
L 653 439 
C 653 198 627 166 218 166 
L 218 0 
C 371 12 653 12 813 12 
C 979 12 1261 12 1414 0 
L 1414 166 
C 1005 166 979 191 979 439 
L 979 4416 
z
" transform="scale(0.015625)"/>
      <path id="CMR17-6f" d="M 2758 1356 
C 2758 2176 2163 2816 1466 2816 
C 768 2816 173 2176 173 1356 
C 173 550 768 -64 1466 -64 
C 2163 -64 2758 550 2758 1356 
z
M 1466 51 
C 1165 51 909 230 762 480 
C 602 768 582 1126 582 1408 
C 582 1676 595 2009 762 2297 
C 890 2508 1139 2713 1466 2713 
C 1754 2713 1997 2553 2150 2329 
C 2349 2028 2349 1606 2349 1408 
C 2349 1158 2336 774 2163 467 
C 1984 172 1709 51 1466 51 
z
" transform="scale(0.015625)"/>
      <path id="CMR17-63" d="M 2234 2240 
C 2112 2240 1933 2240 1933 2015 
C 1933 1836 2080 1785 2163 1785 
C 2208 1785 2394 1804 2394 2028 
C 2394 2476 1958 2816 1466 2816 
C 787 2816 211 2201 211 1379 
C 211 521 813 -64 1466 -64 
C 2259 -64 2458 676 2458 747 
C 2458 773 2451 792 2406 792 
C 2362 792 2355 786 2330 702 
C 2163 180 1798 51 1523 51 
C 1114 51 621 431 621 1385 
C 621 2358 1094 2700 1472 2700 
C 1722 2700 2093 2582 2234 2240 
z
" transform="scale(0.015625)"/>
      <path id="CMR17-61" d="M 2304 1656 
C 2304 2048 2304 2275 2035 2534 
C 1798 2751 1523 2816 1306 2816 
C 800 2816 435 2408 435 1977 
C 435 1740 627 1728 666 1728 
C 749 1728 896 1779 896 1958 
C 896 2118 774 2188 666 2188 
C 640 2188 608 2182 589 2176 
C 723 2594 1069 2713 1293 2713 
C 1613 2713 1965 2421 1965 1875 
L 1965 1632 
C 1587 1619 1133 1568 774 1373 
C 371 1147 256 822 256 576 
C 256 77 832 -64 1171 -64 
C 1523 -64 1850 135 1990 505 
C 2003 219 2182 -39 2464 -39 
C 2598 -39 2938 51 2938 563 
L 2938 926 
L 2822 926 
L 2822 557 
C 2822 161 2650 109 2566 109 
C 2304 109 2304 446 2304 732 
L 2304 1656 
z
M 1965 887 
C 1965 323 1568 38 1216 38 
C 896 38 646 278 646 576 
C 646 771 730 1114 1101 1322 
C 1408 1497 1760 1523 1965 1536 
L 1965 887 
z
" transform="scale(0.015625)"/>
      <path id="CMR17-6e" d="M 2656 1954 
C 2656 2282 2592 2816 1837 2816 
C 1331 2816 1069 2424 973 2166 
L 966 2166 
L 966 2816 
L 211 2745 
L 211 2578 
C 589 2578 646 2540 646 2231 
L 646 443 
C 646 198 621 166 211 166 
L 211 0 
C 365 12 646 12 813 12 
C 979 12 1267 12 1421 0 
L 1421 166 
C 1011 166 986 192 986 443 
L 986 1678 
C 986 2269 1344 2713 1792 2713 
C 2266 2713 2317 2289 2317 1980 
L 2317 443 
C 2317 198 2291 166 1882 166 
L 1882 0 
C 2035 12 2317 12 2483 12 
C 2650 12 2938 12 3091 0 
L 3091 166 
C 2682 166 2656 192 2656 443 
L 2656 1954 
z
" transform="scale(0.015625)"/>
      <path id="CMR17-74" d="M 966 2585 
L 1862 2585 
L 1862 2752 
L 966 2752 
L 966 3968 
L 851 3968 
C 838 3292 614 2700 70 2687 
L 70 2585 
L 627 2585 
L 627 778 
C 627 655 627 -64 1370 -64 
C 1747 -64 1965 308 1965 784 
L 1965 1151 
L 1850 1151 
L 1850 790 
C 1850 347 1677 51 1408 51 
C 1222 51 966 179 966 765 
L 966 2585 
z
" transform="scale(0.015625)"/>
     </defs>
     <use xlink:href="#CMR17-44" transform="scale(0.996264)"/>
     <use xlink:href="#CMR17-65" transform="translate(70.393556 0) scale(0.996264)"/>
     <use xlink:href="#CMR17-73" transform="translate(110.879216 0) scale(0.996264)"/>
     <use xlink:href="#CMR17-6c" transform="translate(146.680554 0) scale(0.996264)"/>
     <use xlink:href="#CMR17-6f" transform="translate(171.551612 0) scale(0.996264)"/>
     <use xlink:href="#CMR17-63" transform="translate(219.844528 0) scale(0.996264)"/>
     <use xlink:href="#CMR17-61" transform="translate(260.330189 0) scale(0.996264)"/>
     <use xlink:href="#CMR17-6d" transform="translate(306.020666 0) scale(0.996264)"/>
     <use xlink:href="#CMR17-65" transform="translate(382.940256 0) scale(0.996264)"/>
     <use xlink:href="#CMR17-6e" transform="translate(423.425916 0) scale(0.996264)"/>
     <use xlink:href="#CMR17-74" transform="translate(471.718832 0) scale(0.996264)"/>
     <use xlink:href="#CMR17-6f" transform="translate(506.9996 0) scale(0.996264)"/>
     <use xlink:href="#CMR17-73" transform="translate(552.690077 0) scale(0.996264)"/>
    </g>
   </g>
   <g id="legend_1">
    <g id="patch_7">
     <path d="M 469.673779 315.4 
L 576.2 315.4 
Q 578.2 315.4 578.2 313.4 
L 578.2 286.525643 
Q 578.2 284.525643 576.2 284.525643 
L 469.673779 284.525643 
Q 467.673779 284.525643 467.673779 286.525643 
L 467.673779 313.4 
Q 467.673779 315.4 469.673779 315.4 
z
" style="fill: #ffffff; opacity: 0.8; stroke: #cccccc; stroke-linejoin: miter"/>
    </g>
    <g id="line2d_26">
     <path d="M 471.673779 292.025643 
L 481.673779 292.025643 
L 491.673779 292.025643 
" style="fill: none; stroke: #0075c4; stroke-linecap: square"/>
    </g>
    <g id="text_16">
     <!-- solução analítica -->
     <g transform="translate(499.673779 295.525643) scale(0.1 -0.1)">
      <defs>
       <path id="CMR17-18" d="M 1632 -128 
L 1293 -128 
L 1293 -442 
C 1574 -448 1792 -567 1792 -781 
C 1792 -1090 1357 -1114 966 -1114 
L 794 -1114 
L 794 -1216 
L 1037 -1216 
C 1056 -1216 1472 -1216 1734 -1146 
C 2042 -1072 2131 -936 2131 -775 
C 2131 -556 1939 -423 1632 -372 
L 1632 -128 
z
" transform="scale(0.015625)"/>
       <path id="CMR17-7e" d="M 2400 4198 
C 2182 3987 2061 3865 1862 3865 
C 1722 3865 1626 3936 1491 4032 
C 1363 4121 1261 4198 1120 4198 
C 890 4198 730 4012 461 3718 
L 531 3648 
C 749 3859 870 3980 1069 3980 
C 1210 3980 1306 3910 1440 3814 
C 1568 3724 1670 3648 1811 3648 
C 2042 3648 2202 3833 2470 4128 
L 2400 4198 
z
" transform="scale(0.015625)"/>
       <path id="CMR17-13" d="M 2221 4157 
C 2298 4226 2317 4239 2317 4308 
C 2317 4403 2234 4480 2144 4480 
C 2067 4480 2042 4447 1978 4371 
L 1254 3468 
C 1210 3411 1210 3404 1210 3398 
C 1210 3391 1267 3334 1280 3321 
L 2221 4157 
z
" transform="scale(0.015625)"/>
       <path id="CMR17-10" d="M 979 2816 
L 243 2745 
L 243 2579 
C 602 2579 653 2540 653 2231 
L 653 443 
C 653 198 627 166 218 166 
L 218 0 
C 371 12 646 12 806 12 
C 960 12 1222 12 1370 0 
L 1370 166 
C 992 166 979 205 979 436 
L 979 2816 
z
" transform="scale(0.015625)"/>
       <path id="CMR17-69" d="M 992 3961 
C 992 4102 877 4224 730 4224 
C 589 4224 467 4108 467 3961 
C 467 3820 582 3699 730 3699 
C 870 3699 992 3814 992 3961 
z
M 243 2745 
L 243 2579 
C 602 2579 653 2540 653 2231 
L 653 443 
C 653 198 627 166 218 166 
L 218 0 
C 371 12 646 12 806 12 
C 960 12 1222 12 1370 0 
L 1370 166 
C 992 166 979 205 979 436 
L 979 2816 
L 243 2745 
z
" transform="scale(0.015625)"/>
      </defs>
      <use xlink:href="#CMR17-73" transform="scale(0.996264)"/>
      <use xlink:href="#CMR17-6f" transform="translate(35.801338 0) scale(0.996264)"/>
      <use xlink:href="#CMR17-6c" transform="translate(81.491815 0) scale(0.996264)"/>
      <use xlink:href="#CMR17-75" transform="translate(106.362873 0) scale(0.996264)"/>
      <use xlink:href="#CMR17-18" transform="translate(157.258243 0) scale(0.996264)"/>
      <use xlink:href="#CMR17-63" transform="translate(157.258243 0) scale(0.996264)"/>
      <use xlink:href="#CMR17-7e" transform="translate(197.743903 0) scale(0.996264)"/>
      <use xlink:href="#CMR17-61" transform="translate(197.743903 0) scale(0.996264)"/>
      <use xlink:href="#CMR17-6f" transform="translate(243.434381 0) scale(0.996264)"/>
      <use xlink:href="#CMR17-61" transform="translate(319.200824 0) scale(0.996264)"/>
      <use xlink:href="#CMR17-6e" transform="translate(364.891301 0) scale(0.996264)"/>
      <use xlink:href="#CMR17-61" transform="translate(415.786671 0) scale(0.996264)"/>
      <use xlink:href="#CMR17-6c" transform="translate(461.477148 0) scale(0.996264)"/>
      <use xlink:href="#CMR17-13" transform="translate(475.938497 0) scale(0.996264)"/>
      <use xlink:href="#CMR17-10" transform="translate(486.348207 0) scale(0.996264)"/>
      <use xlink:href="#CMR17-74" transform="translate(511.219265 0) scale(0.996264)"/>
      <use xlink:href="#CMR17-69" transform="translate(546.500033 0) scale(0.996264)"/>
      <use xlink:href="#CMR17-63" transform="translate(571.371091 0) scale(0.996264)"/>
      <use xlink:href="#CMR17-61" transform="translate(611.856752 0) scale(0.996264)"/>
     </g>
    </g>
    <g id="PathCollection_2">
     <g>
      <use xlink:href="#m524aa6e070" x="481.673779" y="306.837822" style="fill: #0075c4; stroke: #0075c4"/>
     </g>
    </g>
    <g id="text_17">
     <!-- solução numérica -->
     <g transform="translate(499.673779 309.462822) scale(0.1 -0.1)">
      <use xlink:href="#CMR17-73" transform="scale(0.996264)"/>
      <use xlink:href="#CMR17-6f" transform="translate(35.801338 0) scale(0.996264)"/>
      <use xlink:href="#CMR17-6c" transform="translate(81.491815 0) scale(0.996264)"/>
      <use xlink:href="#CMR17-75" transform="translate(106.362873 0) scale(0.996264)"/>
      <use xlink:href="#CMR17-18" transform="translate(157.258243 0) scale(0.996264)"/>
      <use xlink:href="#CMR17-63" transform="translate(157.258243 0) scale(0.996264)"/>
      <use xlink:href="#CMR17-7e" transform="translate(197.743903 0) scale(0.996264)"/>
      <use xlink:href="#CMR17-61" transform="translate(197.743903 0) scale(0.996264)"/>
      <use xlink:href="#CMR17-6f" transform="translate(243.434381 0) scale(0.996264)"/>
      <use xlink:href="#CMR17-6e" transform="translate(319.200824 0) scale(0.996264)"/>
      <use xlink:href="#CMR17-75" transform="translate(367.49374 0) scale(0.996264)"/>
      <use xlink:href="#CMR17-6d" transform="translate(418.38911 0) scale(0.996264)"/>
      <use xlink:href="#CMR17-13" transform="translate(492.706291 0) scale(0.996264)"/>
      <use xlink:href="#CMR17-65" transform="translate(495.3087 0) scale(0.996264)"/>
      <use xlink:href="#CMR17-72" transform="translate(535.79436 0) scale(0.996264)"/>
      <use xlink:href="#CMR17-69" transform="translate(571.075128 0) scale(0.996264)"/>
      <use xlink:href="#CMR17-63" transform="translate(595.946186 0) scale(0.996264)"/>
      <use xlink:href="#CMR17-61" transform="translate(636.431847 0) scale(0.996264)"/>
     </g>
    </g>
   </g>
  </g>
 </g>
 <defs>
  <clipPath id="p78cf112fa9">
   <rect x="81" y="43.2" width="502.2" height="277.2"/>
  </clipPath>
 </defs>
</svg>
